<?xml version="1.0" encoding="UTF-8" standalone="no"?>
<!-- Created with Inkscape (http://www.inkscape.org/) -->
<svg xmlns:svg="http://www.w3.org/2000/svg" xmlns="http://www.w3.org/2000/svg" version="1.0" width="400.73599" height="127.816" viewBox="0 0 400.736 127.816" id="Layer_1" xml:space="preserve"><defs id="defs68"/>

<metadata>
<rdf:RDF xmlns="http://web.resource.org/cc/" xmlns:dc="http://purl.org/dc/elements/1.1/" xmlns:rdf="http://www.w3.org/1999/02/22-rdf-syntax-ns#">
      <Work rdf:about="">
         <dc:title>Bugle</dc:title>
         <dc:description>Bugle</dc:description>
         <dc:subject>
          <rdf:Bag>
            <rdf:li>music</rdf:li>
            <rdf:li>instrument</rdf:li>
	    <rdf:li>bugle</rdf:li>
          </rdf:Bag>
         </dc:subject>
         <dc:publisher><Agent rdf:about="http://www.openclipart.org/"><dc:title>Open Clip Art Project</dc:title></Agent></dc:publisher>
         <dc:creator><Agent rdf:about=""><dc:title>Gerald G.</dc:title></Agent></dc:creator>
         <dc:rights><Agent rdf:about="http://web.resource.org/cc/PublicDomain"><dc:title>Public Domain</dc:title></Agent></dc:rights>
         <dc:date>2006/10/02</dc:date>
         <dc:format>image/svg+xml</dc:format>
         <dc:type>http://purl.org/dc/dcmitype/StillImage</dc:type>
         <license rdf:resource="http://web.resource.org/cc/PublicDomain"/>
      </Work>
      <License rdf:about="http://web.resource.org/cc/PublicDomain">
         <permits rdf:resource="http://web.resource.org/cc/Reproduction"/>
         <permits rdf:resource="http://web.resource.org/cc/Distribution"/>
         <permits rdf:resource="http://web.resource.org/cc/DerivativeWorks"/>
      </License>
   </rdf:RDF>
</metadata>


<g id="g5">
	<path d="M 72.061,58.319 C 69.397,59.111 66.877,60.335 64.321,62.099 C 61.765,63.863 59.029,66.06 56.941,68.868 C 54.889,71.677 53.089,74.412 51.973,78.732 C 50.821,83.087 49.561,88.74 50.209,94.715 C 50.893,100.728 51.901,109.367 56.005,114.371 C 60.145,119.375 66.445,122.363 74.761,124.379 C 83.149,126.396 95.857,125.999 105.685,126.396 C 115.477,126.755 124.477,126.828 133.081,126.612 C 133.369,126.972 133.657,127.332 133.945,127.692 C 138.805,127.728 143.665,127.764 148.561,127.799 C 148.885,127.476 149.209,127.152 149.533,126.791 C 160.477,126.936 176.461,127.007 198.349,127.007 C 220.345,127.007 247.093,126.9 280.069,126.72 L 280.069,126.72 C 282.193,126.539 284.1,126.18 285.865,125.64 C 287.593,125.064 289.104,124.344 290.472,123.408 C 293.64,122.976 296.664,121.968 299.724,120.276 C 302.748,118.584 306.06,116.064 308.58,113.328 C 311.064,110.557 312.9,107.929 314.592,103.932 C 316.248,99.936 317.905,94.104 318.516,89.604 C 319.092,85.068 318.661,80.928 318.157,77.148 C 317.617,73.332 316.753,70.056 315.493,67.032 C 320.209,67.212 325.213,67.68 330.793,68.472 C 336.373,69.228 342.637,69.696 348.613,71.676 C 354.589,73.655 364.201,78.768 366.361,80.207 C 368.485,81.611 369.457,82.295 371.293,83.987 C 373.021,90.323 374.533,95.147 376.441,98.459 C 378.312,101.772 380.077,103.283 382.344,103.859 L 382.344,103.859 C 384.613,104.435 387.456,104.795 389.941,101.915 C 392.388,98.999 395.233,93.779 396.997,86.687 C 398.797,79.559 400.201,69.334 400.56,59.722 C 400.956,50.11 400.632,38.374 399.264,29.554 C 397.896,20.77 395.124,12.382 392.46,7.414 C 389.724,2.482 385.872,0.61 383.208,0.106 C 380.508,-0.398 378.384,1.258 376.44,4.498 C 374.532,7.81 372.984,12.706 371.723,19.546 C 367.944,24.082 363.227,27.754 357.251,30.706 C 351.311,33.694 348.215,35.17 336.263,37.186 C 324.276,39.238 307.824,41.074 286.043,42.802 C 283.559,42.802 281.075,42.802 278.591,42.766 C 278.159,42.55 277.692,42.334 277.223,42.118 C 272.868,42.19 268.511,42.262 264.119,42.334 C 263.795,42.658 263.471,42.982 263.147,43.342 C 255.478,43.342 242.05,43.594 222.142,44.134 C 202.09,44.674 171.022,45.934 144.274,46.51 C 117.526,47.122 90.958,47.482 63.094,47.626 C 62.698,47.086 62.302,46.546 61.906,46.006 C 57.586,46.006 53.266,46.006 48.946,46.042 C 48.37,46.654 47.758,47.266 47.146,47.878 C 42.97,48.202 38.758,48.562 34.546,48.922 C 30.946,47.59 27.526,46.726 24.034,46.258 C 20.578,45.79 17.266,45.718 13.918,46.078 C 13.738,45.61 13.234,45.286 12.406,45.106 C 11.542,44.926 10.426,44.89 8.914,44.998 C 9.022,44.35 8.554,43.99 7.582,43.846 C 6.538,43.738 5.026,43.882 2.938,44.278 L 2.938,44.278 C 1.21,46.186 0.274,48.418 0.058,51.118 C -0.194,53.818 0.706,57.922 1.498,60.226 C 2.326,62.53 3.442,64.042 4.918,64.834 C 7.006,64.798 9.094,64.763 11.218,64.727 C 11.362,64.294 11.506,63.862 11.686,63.394 C 13.162,63.43 14.314,63.358 15.178,63.178 C 16.042,62.998 16.582,62.71 16.834,62.314 C 21.01,61.99 24.466,61.45 27.418,60.658 C 30.37,59.83 32.638,58.822 34.366,57.562 C 38.758,57.454 43.186,57.31 47.614,57.166 C 48.334,57.706 49.054,58.246 49.81,58.786 C 53.23,58.75 56.65,58.714 60.106,58.642 C 60.574,58.246 61.078,57.85 61.582,57.454 C 62.842,57.598 64.318,57.742 66.082,57.886 C 67.846,58.03 69.793,58.175 72.061,58.319 L 72.061,58.319 z M 117.169,65.123 C 113.173,65.016 108.493,65.016 102.913,65.195 C 97.297,65.375 89.053,65.339 83.797,66.167 C 78.577,66.995 75.085,67.967 71.737,70.163 C 68.425,72.395 65.761,76.031 64.105,79.271 C 62.413,82.475 62.017,85.427 61.765,89.243 C 61.513,93.096 61.405,98.279 62.629,102.023 C 63.853,105.767 65.653,109.439 69.073,111.563 C 72.529,113.687 75.661,114.083 83.077,114.659 C 90.529,115.235 100.429,115.379 113.317,115.019 C 110.689,111.491 108.889,107.531 107.809,102.995 C 106.729,98.423 106.333,92.807 106.909,87.875 C 107.485,82.979 109.429,77.543 111.157,73.691 C 112.885,69.875 114.865,67.067 117.169,65.123 L 117.169,65.123 z M 151.909,67.896 C 151.765,68.292 151.621,68.688 151.441,69.084 C 147.373,69.12 143.269,69.192 139.165,69.265 C 139.021,68.941 138.841,68.617 138.661,68.292 C 135.781,68.437 133.225,69.013 130.885,70.057 C 128.509,71.137 126.349,72.721 124.621,74.664 C 122.893,76.572 121.561,78.84 120.589,81.54 C 119.581,84.24 118.825,87.228 118.753,90.685 C 118.645,94.141 118.897,98.893 120.085,102.132 C 121.273,105.336 123.577,108.036 125.845,109.836 C 128.113,111.637 130.633,112.645 133.549,112.86 C 133.909,112.536 134.305,112.212 134.701,111.852 C 138.985,111.816 143.305,111.744 147.625,111.671 C 148.021,111.995 148.417,112.319 148.813,112.644 C 168.829,112.356 186.685,112.248 203.281,112.284 C 219.841,112.32 236.113,112.896 247.453,112.896 C 258.757,112.932 264.337,112.572 270.529,112.392 C 276.72,112.211 280.968,112.068 284.317,111.852 C 287.629,111.6 289.573,111.276 290.293,110.915 C 292.705,107.783 294.505,104.436 295.765,100.691 C 297.026,96.947 297.889,92.878 297.745,88.703 C 297.565,84.527 296.701,79.344 294.721,75.815 C 292.669,72.251 288.349,69.298 285.793,67.643 C 283.201,66.023 282.661,66.347 279.457,66.059 C 276.217,65.807 273.697,66.023 266.641,66.095 C 259.585,66.202 251.702,66.347 237.446,66.563 C 223.082,66.779 196.082,67.21 181.646,67.462 C 167.317,67.68 157.561,67.823 151.909,67.896 L 151.909,67.896 z " style="fill-rule:evenodd;stroke:black;stroke-width:0.036;stroke-miterlimit:10" id="path7"/>
	<path d="M 71.413,55.979 C 76.633,55.655 82.933,55.475 90.853,55.439 C 98.665,55.295 107.737,55.295 118.213,55.439 L 118.213,55.439 C 127.645,56.051 131.569,56.483 130.417,56.735 C 128.977,56.843 117.565,56.483 110.761,56.627 C 103.957,56.771 95.821,57.419 90.241,57.599 C 84.589,57.635 80.341,57.347 77.209,57.167 C 74.077,56.843 72.097,56.447 71.413,55.979 L 71.413,55.979 z " style="fill:#ffd63f;fill-rule:evenodd;stroke:black;stroke-width:0.036;stroke-miterlimit:10" id="path9"/>
	<path d="M 120.229,61.811 C 113.317,61.667 106.729,61.703 99.925,61.919 C 93.049,61.955 85.345,61.775 79.873,62.891 C 74.257,64.043 70.477,65.988 67.129,68.868 C 63.781,71.604 61.513,74.664 60.037,79.452 C 58.597,84.097 57.193,91.656 58.165,96.984 C 58.921,102.24 60.793,108 65.041,111.204 C 69.361,114.265 75.445,115.74 83.689,115.632 L 83.689,115.632 C 78.757,115.632 74.905,114.912 71.701,113.868 C 68.497,112.788 66.517,111.492 64.789,108.864 C 62.953,105.984 61.333,101.232 60.757,97.38 C 60.037,93.492 60.433,88.92 60.973,85.609 C 61.369,82.189 62.377,79.561 63.853,77.041 C 65.293,74.449 67.201,71.857 69.721,70.093 C 72.133,68.257 74.905,66.925 78.433,66.098 C 81.853,65.234 86.677,64.801 90.565,64.658 C 94.309,64.298 97.189,64.514 101.689,64.478 C 106.189,64.37 111.481,64.333 117.709,64.226 L 117.709,64.226 C 118.537,63.431 119.365,62.639 120.229,61.811 L 120.229,61.811 z " style="fill:#ffd63f;fill-rule:evenodd;stroke:black;stroke-width:0.036;stroke-miterlimit:10" id="path11"/>
	<path d="M 57.697,79.703 C 58.237,76.247 59.497,73.295 61.621,70.848 C 63.745,68.327 66.589,66.455 70.297,64.944 L 70.297,64.944 C 65.869,65.916 62.593,67.464 60.325,69.588 C 57.985,71.568 57.409,74.628 56.797,77.364 C 56.149,79.992 56.329,85.212 56.509,85.68 C 56.617,86.039 57.013,84.096 57.697,79.703 L 57.697,79.703 z " style="fill:#ffd63f;fill-rule:evenodd;stroke:black;stroke-width:0.036;stroke-miterlimit:10" id="path13"/>
	<path d="M 58.561,108.755 C 58.201,108.648 60.541,111.6 62.269,112.751 C 63.817,113.867 67.561,115.02 68.065,115.235 C 68.425,115.271 66.373,114.155 64.825,113.147 C 63.133,111.888 58.957,108.899 58.561,108.755 L 58.561,108.755 z " style="fill:#ffd63f;fill-rule:evenodd;stroke:black;stroke-width:0.036;stroke-miterlimit:10" id="path15"/>
	<path d="M 68.173,121.211 C 69.361,122.111 71.989,123.012 76.345,123.623 C 80.701,124.199 86.821,124.631 93.877,125.063 C 100.753,125.459 111.229,125.71 117.817,125.962 C 124.369,126.107 129.337,126.107 133.009,125.962 L 133.009,125.962 L 127.861,124.523 L 127.861,124.523 C 114.721,124.019 103.417,123.443 93.409,122.939 C 83.293,122.327 75.157,121.751 68.173,121.211 L 68.173,121.211 z " style="fill:#ffd63f;fill-rule:evenodd;stroke:black;stroke-width:0.036;stroke-miterlimit:10" id="path17"/>
	<path d="M 107.809,100.043 C 108.529,103.751 109.717,106.955 111.373,110.051 C 113.065,113.148 115.009,115.776 117.493,118.079 C 119.833,120.275 122.425,121.895 125.269,123.083 C 127.969,124.235 130.705,124.955 133.621,125.1 L 133.621,125.1 L 134.737,127.007 L 147.769,127.224 L 149.029,126.144 L 149.029,126.144 C 159.829,126.215 169.765,126.215 179.377,126.288 C 188.809,126.252 196.333,126.252 206.125,126.288 C 216.061,126.181 228.517,126.036 237.949,126 C 247.056,125.964 254.041,126.036 261.241,126.072 C 268.405,125.928 276.253,126.036 280.896,125.568 C 285.432,125.028 287.989,124.128 288.565,122.868 L 288.565,122.868 C 290.653,122.868 292.741,122.292 295.369,121.284 C 297.852,120.096 300.805,119.016 303.649,116.64 C 306.42,114.156 309.768,111.096 312.037,107.316 C 314.125,103.536 316.573,95.003 316.753,94.212 C 316.897,93.42 314.881,99.252 313.225,102.384 C 311.497,105.445 309.769,109.405 306.782,112.321 C 303.685,115.092 300.122,117.289 295.118,118.909 C 290.006,120.421 288.386,120.781 276.794,121.357 C 264.986,121.753 240.182,121.716 225.71,121.933 C 211.238,122.077 203.57,122.256 190.646,122.473 C 177.614,122.544 163.79,122.725 148.346,122.725 L 148.346,122.725 L 147.05,121.681 L 133.802,121.897 L 132.758,122.544 L 132.758,122.544 C 129.878,122.725 126.998,121.897 123.722,119.916 C 120.446,117.9 115.91,113.94 113.318,110.664 C 110.653,107.315 108.817,103.823 107.809,100.043 L 107.809,100.043 z " style="fill:#ffd63f;fill-rule:evenodd;stroke:black;stroke-width:0.036;stroke-miterlimit:10" id="path19"/>
	<path d="M 128.797,116.604 C 127.717,116.352 124.765,115.631 123.001,114.587 C 121.129,113.436 118.681,110.879 118.429,110.375 C 118.249,109.871 119.797,110.951 121.669,111.815 C 123.361,112.607 127.537,114.479 128.797,115.343 C 129.913,116.243 129.733,116.531 128.797,116.604 L 128.797,116.604 z " style="fill:#ffd63f;fill-rule:evenodd;stroke:black;stroke-width:0.036;stroke-miterlimit:10" id="path21"/>
	<path d="M 121.381,107.531 C 121.957,109.187 123.217,110.663 125.305,111.959 C 127.357,113.255 129.985,114.155 133.477,115.056 L 133.477,115.056 L 148.021,114.804 L 148.021,114.804 C 148.813,114.984 149.569,115.163 150.145,115.2 C 150.721,115.236 151.153,115.236 151.441,115.2 L 151.441,115.2 C 159.001,115.272 169.045,115.2 182.005,115.128 C 195.073,114.948 213.973,114.732 228.589,114.624 C 243.026,114.444 257.569,114.66 267.902,114.444 C 277.982,114.228 283.922,114.372 289.465,113.22 C 294.937,111.888 298.033,110.087 301.129,106.848 C 304.225,103.463 306.385,98.316 307.753,93.492 C 308.905,88.56 308.365,79.416 308.365,78.3 C 308.329,77.221 308.184,83.916 307.644,87.3 C 306.96,90.721 306.348,94.897 304.836,98.46 C 303.252,101.916 300.768,105.588 298.356,107.964 C 295.836,110.196 293.065,111.025 289.896,111.96 C 286.693,112.824 285.649,112.608 279.42,112.968 C 272.976,113.185 262.932,113.328 252.06,113.401 C 241.044,113.401 231.577,113.041 214.224,113.149 C 196.728,113.221 175.092,113.221 148.201,113.545 L 148.201,113.545 L 146.689,112.501 L 135.781,112.43 L 132.829,113.545 L 132.829,113.545 C 129.913,113.041 127.501,112.249 125.737,111.314 C 123.901,110.306 122.713,109.045 122.029,107.534 L 122.029,107.534 L 121.381,107.534 L 121.381,107.531 z " style="fill:#ffd63f;fill-rule:evenodd;stroke:black;stroke-width:0.036;stroke-miterlimit:10" id="path23"/>
	<path d="M 153.385,116.243 C 156.337,116.136 166.129,116.388 176.245,116.315 C 186.325,116.063 202.093,115.451 213.001,115.307 C 223.657,115.126 230.965,115.271 240.361,115.307 C 249.72,115.162 261.673,115.126 268.98,115.055 C 276.144,114.91 278.917,115.559 283.525,115.055 C 288.096,114.443 294.396,112.031 296.304,111.851 C 297.996,111.527 296.772,112.931 294.18,113.579 C 291.552,114.264 287.844,115.163 280.968,115.739 C 273.985,116.135 264.552,116.207 252.96,116.387 C 241.188,116.567 227.328,116.71 211.524,116.819 C 195.648,116.927 168.719,117.035 158.927,116.999 C 149.173,116.783 150.469,116.352 153.385,116.243 L 153.385,116.243 z " style="fill:#ffd63f;fill-rule:evenodd;stroke:black;stroke-width:0.036;stroke-miterlimit:10" id="path25"/>
	<path d="M 150.649,118.619 C 158.821,118.403 184.489,118.655 200.005,118.691 C 215.413,118.619 230.029,118.475 242.737,118.259 C 255.409,117.899 267.468,117.214 275.425,116.891 C 283.165,116.495 285.001,117.071 289.105,116.243 C 293.137,115.344 296.414,113.723 299.509,111.779 C 302.497,109.835 305.089,108.071 307.285,104.399 C 309.301,100.475 311.317,94.823 311.965,88.955 C 312.505,82.979 310.993,71.711 311.029,69.299 C 311.065,66.888 311.965,70.955 312.361,74.411 C 312.684,77.76 313.512,84.131 313.045,89.351 C 312.505,94.427 312.253,100.294 309.229,105.011 C 306.026,109.618 303.253,114.191 294.65,116.782 C 286.046,119.122 274.454,118.978 257.929,119.698 C 241.117,120.418 213.001,120.778 195.109,120.922 C 177.073,120.958 158.857,120.454 151.297,120.095 C 143.773,119.591 142.585,118.871 150.649,118.619 L 150.649,118.619 z " style="fill:#ffd63f;fill-rule:evenodd;stroke:black;stroke-width:0.036;stroke-miterlimit:10" id="path27"/>
	<path d="M 112.849,81.396 C 113.425,79.308 115.009,74.879 116.773,72.144 C 118.357,69.408 120.085,67.211 123.073,65.412 C 126.025,63.468 133.117,61.848 134.773,61.38 C 136.321,61.02 134.593,61.92 132.649,63.108 C 130.561,64.189 125.413,65.916 122.893,67.752 C 120.373,69.372 119.221,70.488 117.637,73.189 C 115.981,75.817 113.821,82.044 113.101,83.521 C 112.237,84.852 112.201,83.268 112.849,81.396 L 112.849,81.396 z " style="fill:#ffd63f;fill-rule:evenodd;stroke:black;stroke-width:0.036;stroke-miterlimit:10" id="path29"/>
	<path d="M 117.385,96.911 C 116.881,95.183 116.773,93.096 117.061,90.503 C 117.169,87.839 117.925,84.167 119.041,81.287 C 120.229,78.227 122.569,74.771 124.261,72.863 C 125.881,70.955 127.429,70.487 128.905,69.803 C 130.309,68.975 131.065,68.435 132.721,68.038 C 134.269,67.462 136.069,67.21 138.265,66.887 L 138.265,66.887 L 140.245,68.542 L 150.685,68.398 L 151.945,67.102 L 151.945,67.102 C 155.185,67.03 162.241,66.921 173.113,66.778 C 184.093,66.562 203.605,66.274 216.925,66.058 C 230.209,65.698 241.657,65.23 251.953,65.085 C 262.069,64.905 272.005,65.049 277.188,65.121 C 282.193,65.157 280.285,64.977 281.869,65.266 C 283.381,65.373 284.389,65.482 286.153,66.274 C 287.844,67.102 290.005,68.614 291.804,70.234 C 293.424,71.782 295.405,74.95 295.945,75.31 C 296.268,75.49 295.764,72.97 294.577,71.494 C 293.317,69.874 291.625,67.606 288.961,66.238 C 286.261,64.798 285.037,63.898 278.629,63.394 C 272.005,62.89 264.481,63.214 250.225,63.394 C 235.826,63.394 210.337,63.898 193.598,64.078 C 176.822,64.223 162.782,64.582 150.65,64.763 L 150.65,64.763 L 149.354,64.151 L 138.662,64.295 L 136.97,65.411 L 136.97,65.411 C 135.134,65.195 133.01,65.699 130.598,66.779 C 128.042,67.751 124.586,69.479 122.318,71.819 C 119.978,74.231 118.25,76.931 117.134,80.891 C 115.91,84.743 115.406,90.754 115.622,94.607 C 115.874,98.279 118.394,102.635 118.754,103.103 C 118.969,103.463 118.645,101.447 117.385,96.911 L 117.385,96.911 z " style="fill:#ffd63f;fill-rule:evenodd;stroke:black;stroke-width:0.036;stroke-miterlimit:10" id="path31"/>
	<path d="M 150.541,57.923 C 158.461,57.599 178.477,57.203 193.921,57.023 C 209.293,56.771 229.093,56.591 242.197,56.483 C 255.049,56.339 264.228,56.123 271.249,56.231 C 278.125,56.195 280.393,55.979 283.885,56.699 C 287.305,57.383 290.906,60.011 291.625,60.407 C 292.057,60.695 289.465,59.219 287.341,58.751 C 285.253,58.283 284.605,57.419 278.989,57.419 C 273.157,57.275 263.545,57.851 252.925,58.031 C 242.269,58.067 230.497,57.887 215.521,58.175 C 200.257,58.427 174.589,59.471 162.961,59.651 C 151.369,59.687 148.813,58.895 146.689,58.643 C 144.565,58.283 142.657,58.139 150.541,57.923 L 150.541,57.923 z " style="fill:#ffd63f;fill-rule:evenodd;stroke:black;stroke-width:0.036;stroke-miterlimit:10" id="path33"/>
	<path d="M 151.009,61.127 C 161.341,61.055 192.625,60.839 210.409,60.623 C 227.976,60.191 245.041,59.543 255.913,59.255 C 266.569,58.931 269.341,59.039 274.525,59.183 C 279.636,59.291 283.308,59.327 286.512,60.263 C 289.464,61.091 291.228,62.603 293.208,64.224 C 295.187,65.736 296.988,66.888 298.608,69.48 C 300.192,71.963 301.92,76.104 302.82,79.272 C 303.54,82.332 303.683,83.952 303.395,88.02 C 302.963,92.051 301.343,101.844 301.055,103.211 C 300.803,104.291 301.524,99.18 301.811,95.507 C 302.028,91.728 302.568,85.751 302.028,81.611 C 301.236,77.543 299.94,74.267 297.564,71.207 C 295.152,68.003 292.236,64.512 287.843,62.819 C 283.236,61.091 281.867,61.019 270.707,60.947 C 259.475,60.803 239.279,61.343 221.351,61.739 C 203.207,61.991 175.704,62.351 163.427,62.423 C 151.259,62.315 150.971,62.063 148.667,61.811 C 146.327,61.559 149.063,61.199 149.531,61.163 C 149.857,61.091 140.821,61.127 151.009,61.127 L 151.009,61.127 z " style="fill:#ffd63f;fill-rule:evenodd;stroke:black;stroke-width:0.036;stroke-miterlimit:10" id="path35"/>
	<path d="M 162.529,47.015 C 165.157,46.871 174.697,46.619 191.581,46.115 C 208.573,45.611 231.973,44.999 263.149,44.135 L 263.149,44.135 L 265.272,43.019 L 277.26,42.623 L 278.772,43.667 L 278.772,43.667 C 283.02,43.631 287.016,44.207 290.76,45.395 C 294.504,46.619 298.5,48.923 301.092,50.795 C 303.576,52.451 305.7,55.763 305.664,55.871 C 305.412,55.799 302.46,52.631 300.264,51.227 C 298.104,49.823 296.233,48.455 292.704,47.519 C 288.996,46.475 284.532,45.863 278.771,45.395 L 278.771,45.395 L 276.648,44.567 L 264.876,44.963 L 263.184,46.043 L 263.184,46.043 C 249.936,46.439 236.688,46.871 223.044,47.339 C 209.328,47.699 191.724,48.455 181.608,48.635 C 171.42,48.707 165.768,48.491 162.564,48.275 C 159.361,47.987 159.397,47.519 162.529,47.015 L 162.529,47.015 z " style="fill:#ffd63f;fill-rule:evenodd;stroke:black;stroke-width:0.036;stroke-miterlimit:10" id="path37"/>
	<path d="M 217.501,48.923 C 229.381,48.743 238.993,48.383 246.769,48.239 C 254.509,48.059 259.873,47.699 263.437,47.555 L 263.437,47.555 L 265.129,46.439 L 276.685,46.475 L 277.946,47.123 L 277.946,47.123 C 283.382,47.231 287.63,47.771 291.229,48.599 C 294.578,49.319 296.629,50.723 298.79,52.127 C 300.95,53.459 302.498,54.863 304.406,57.167 C 306.206,59.435 309.302,65.051 309.662,65.844 C 309.878,66.455 308.294,63.503 306.17,61.415 C 303.974,59.183 300.302,55.151 297.098,53.207 C 293.678,51.155 290.042,50.327 286.766,49.751 C 283.562,49.139 280.682,48.995 277.983,49.463 L 277.983,49.463 L 276.722,50.975 L 265.202,51.155 L 263.473,50.543 L 263.473,50.543 C 258.397,50.759 251.053,51.083 241.045,51.119 C 230.929,51.083 212.857,51.155 203.641,51.047 C 194.317,50.975 186.001,50.903 185.893,50.687 C 185.821,50.363 197.845,49.859 203.209,49.571 C 208.501,49.283 213.217,49.067 217.501,48.923 L 217.501,48.923 z " style="fill:#ffd63f;fill-rule:evenodd;stroke:black;stroke-width:0.036;stroke-miterlimit:10" id="path39"/>
	<path d="M 306.745,82.764 C 307.644,80.532 307.789,77.688 307.033,74.232 C 306.277,70.631 304.585,65.124 302.352,61.883 C 300.084,58.571 297.493,56.591 293.46,54.971 C 289.32,53.243 284.316,52.235 278.016,51.803 L 278.016,51.803 L 276.54,52.487 L 265.2,52.235 L 263.076,51.623 L 263.076,51.623 C 240.9,52.055 219.804,52.415 198.528,52.847 C 177.216,53.207 148.236,53.531 136.572,53.819 C 125.088,53.999 128.94,53.783 129.516,54.143 C 129.876,54.395 131.64,55.115 139.38,55.475 C 147.228,55.655 163.392,55.799 175.92,55.763 C 188.304,55.547 198.312,55.403 213.324,55.187 C 228.263,55.043 245.112,54.863 264.84,54.791 L 264.84,54.791 C 268.512,54.611 272.256,54.575 275.928,54.827 C 279.672,54.971 283.596,55.115 286.872,55.943 C 289.932,56.663 292.164,57.383 294.828,59.651 C 297.492,61.883 300.804,66.276 302.676,69.371 C 304.368,72.359 304.872,75.096 305.592,77.435 C 306.241,79.667 306.673,81.396 306.745,82.764 L 306.745,82.764 z " style="fill:#ffd63f;fill-rule:evenodd;stroke:black;stroke-width:0.036;stroke-miterlimit:10" id="path41"/>
	<path d="M 32.677,52.019 C 29.437,51.371 26.269,51.047 23.029,50.903 C 19.681,50.795 16.549,50.867 13.201,51.263 L 13.201,51.263 C 12.949,51.911 13.021,52.667 13.021,53.387 C 12.985,54.107 13.273,54.899 13.489,55.763 L 13.489,55.763 C 18.637,56.195 22.597,56.123 25.909,55.547 C 29.077,54.935 31.381,53.711 32.677,52.019 L 32.677,52.019 z " style="fill:#ffd63f;fill-rule:evenodd;stroke:black;stroke-width:0.036;stroke-miterlimit:10" id="path43"/>
	<path d="M 11.941,50.651 C 11.689,51.659 11.581,52.775 11.761,53.855 C 11.869,54.935 12.121,56.123 12.661,57.275 L 12.661,57.275 C 11.149,56.303 10.141,55.295 9.637,54.107 C 9.061,52.739 9.133,50.939 9.565,50.255 C 9.889,49.715 10.681,49.751 11.941,50.651 L 11.941,50.651 z " style="fill:#ffd63f;fill-rule:evenodd;stroke:black;stroke-width:0.036;stroke-miterlimit:10" id="path45"/>
	<path d="M 7.801,46.439 C 7.909,46.511 6.325,48.023 6.361,50.291 C 6.289,52.523 7.837,58.751 7.801,59.687 C 7.585,60.443 6.217,56.663 5.785,55.007 C 5.389,53.279 4.849,51.047 5.281,49.679 C 5.605,48.095 7.549,46.367 7.801,46.439 L 7.801,46.439 z " style="fill:#ffd63f;fill-rule:evenodd;stroke:black;stroke-width:0.036;stroke-miterlimit:10" id="path47"/>
	<path d="M 16.153,47.375 C 17.197,47.663 22.237,48.167 25.153,48.743 C 27.997,49.211 32.533,50.795 33.073,50.723 C 33.505,50.579 30.265,48.671 27.925,48.059 C 25.441,47.339 20.869,47.051 18.925,46.907 C 16.945,46.763 15.001,47.051 16.153,47.375 L 16.153,47.375 z " style="fill:#ffd63f;fill-rule:evenodd;stroke:black;stroke-width:0.036;stroke-miterlimit:10" id="path49"/>
	<path d="M 36.529,51.767 C 37.861,51.623 43.189,51.767 44.449,52.055 C 45.565,52.199 45.169,52.667 43.801,52.919 C 42.361,52.991 37.249,53.171 36.097,53.027 C 34.801,52.739 35.125,51.947 36.529,51.767 L 36.529,51.767 z " style="fill:#ffd63f;fill-rule:evenodd;stroke:black;stroke-width:0.036;stroke-miterlimit:10" id="path51"/>
	<path d="M 73.069,51.407 C 81.853,50.975 108.781,50.831 123.289,50.831 C 137.653,50.831 158.245,51.047 158.965,51.335 C 159.397,51.479 141.937,51.551 127.141,51.839 C 112.237,51.983 80.089,52.775 70.945,52.703 C 61.909,52.523 64.285,51.767 73.069,51.407 L 73.069,51.407 z " style="fill:#ffd63f;fill-rule:evenodd;stroke:black;stroke-width:0.036;stroke-miterlimit:10" id="path53"/>
	<path d="M 287.521,43.127 C 294.614,42.803 301.309,42.335 308.005,41.723 C 314.593,41.075 320.677,40.427 327.229,39.491 C 333.746,38.411 341.341,37.223 346.813,35.783 C 352.07,34.343 355.057,32.939 359.126,30.887 C 363.122,28.655 368.09,25.775 370.97,22.787 C 373.67,19.655 374.354,15.443 375.938,12.671 C 377.378,9.719 378.495,7.487 380.115,5.975 C 381.735,4.391 383.678,2.627 385.659,3.743 C 387.495,4.931 389.583,9.035 391.347,12.851 C 392.967,16.379 394.731,20.303 395.811,25.595 C 396.82,30.995 397.324,37.439 397.612,44.783 C 397.864,51.911 398.259,60.155 397.143,68.543 C 395.811,76.896 392.643,89.136 390.267,94.283 C 387.784,99.215 385.335,99.215 383.068,98.459 C 380.727,97.523 378.712,92.051 376.731,89.388 C 374.752,86.688 375.364,85.356 371.368,82.476 C 367.191,79.56 358.372,74.16 352.288,71.82 C 346.132,69.264 340.876,68.796 334.72,67.788 C 328.456,66.744 321.94,66.24 315.029,65.988 L 315.029,65.988 C 314.848,64.872 314.272,63.683 313.697,62.568 C 313.085,61.344 312.077,60.192 311.069,58.968 L 311.069,58.968 C 316.396,58.464 323.453,58.644 332.669,59.508 C 341.885,60.408 357.437,63.072 365.86,63.9 C 374.069,64.548 378.209,65.736 382.312,63.432 C 386.308,60.984 389.333,55.152 390.016,49.824 C 390.556,44.388 388.396,34.92 386.308,31.284 C 384.292,27.576 383.392,27.036 377.92,28.008 C 372.232,28.908 361.504,34.668 352.828,36.972 C 344.008,39.132 335.836,39.852 325.972,41.22 C 316.036,42.552 305.596,43.74 293.968,44.928 L 293.968,44.928 C 292.42,44.46 291.124,43.92 290.08,43.704 C 288.925,43.451 288.205,43.127 287.521,43.127 L 287.521,43.127 z " style="fill:#ffd63f;fill-rule:evenodd;stroke:black;stroke-width:0.036;stroke-miterlimit:10" id="path55"/>
	<path d="M 298.033,45.719 C 312.541,45.215 325.213,44.351 336.877,42.983 C 348.397,41.579 362.653,37.835 367.153,37.583 C 371.401,37.259 368.772,39.419 363.157,40.859 C 357.361,42.155 344.113,44.423 333.709,45.575 C 323.269,46.655 312.649,47.375 301.272,47.591 L 301.272,47.591 C 300.193,46.979 299.113,46.367 298.033,45.719 L 298.033,45.719 z " style="fill:#ffd63f;fill-rule:evenodd;stroke:black;stroke-width:0.036;stroke-miterlimit:10" id="path57"/>
	<path d="M 304.729,51.191 C 305.593,51.911 306.421,52.955 307.357,53.927 C 308.221,54.899 309.158,56.015 310.166,57.275 L 310.166,57.275 C 309.41,55.979 310.13,54.971 312.47,54.251 C 314.666,53.423 316.79,52.991 323.991,52.811 C 331.262,52.559 345.554,53.171 355.635,53.135 C 365.572,53.027 379.072,52.919 383.211,52.523 C 387.099,51.983 384.975,50.831 379.755,50.435 C 374.427,49.931 361.395,50.111 352.179,50.003 C 342.855,49.787 331.623,49.463 324.603,49.571 C 317.547,49.607 313.767,50.075 310.492,50.435 C 307.141,50.651 305.269,50.903 304.729,51.191 L 304.729,51.191 z " style="fill:#ffd63f;fill-rule:evenodd;stroke:black;stroke-width:0.036;stroke-miterlimit:10" id="path59"/>
	<path d="M 372.229,84.275 L 374.282,86.615 L 374.282,86.615 C 375.29,88.919 376.513,91.043 377.666,92.987 C 378.782,94.859 380.114,97.055 381.374,98.171 C 382.562,99.215 384.074,99.684 385.37,99.575 C 386.558,99.395 387.71,99.071 388.97,97.487 C 390.23,95.867 391.886,93.059 393.111,89.747 C 394.299,86.147 395.487,80.388 396.279,77.039 C 396.999,73.655 397.467,69.659 397.539,70.056 C 397.503,70.344 396.602,77.112 396.351,79.272 C 395.955,81.324 395.667,82.944 395.919,82.764 C 396.243,82.476 396.963,80.892 398.223,77.868 L 398.223,77.868 C 398.007,79.848 397.539,82.08 396.82,84.852 C 396.099,87.551 394.984,91.331 393.868,94.104 C 392.643,96.839 391.24,99.54 389.656,101.232 C 388,102.816 386.019,103.5 384.256,103.428 C 382.384,103.247 380.224,101.951 378.748,100.367 C 377.164,98.676 375.904,96.407 374.824,93.707 C 373.705,90.972 372.841,87.875 372.229,84.275 L 372.229,84.275 z " style="fill:#ffd63f;fill-rule:evenodd;stroke:black;stroke-width:0.036;stroke-miterlimit:10" id="path61"/>
	<path d="M 398.617,39.275 C 398.472,40.427 398.221,42.659 398.293,45.539 C 398.221,48.347 398.473,52.559 398.653,55.943 C 398.797,59.219 398.869,65.304 399.157,65.304 C 399.409,65.087 399.733,59.075 399.985,55.439 C 400.092,51.695 399.913,46.511 399.84,43.631 C 399.552,40.823 399.3,39.131 399.084,38.555 C 398.905,37.871 398.653,37.979 398.617,39.275 L 398.617,39.275 z " style="fill:#ffd63f;fill-rule:evenodd;stroke:black;stroke-width:0.036;stroke-miterlimit:10" id="path63"/>
	<path d="M 372.157,19.079 L 373.885,16.595 L 373.885,16.595 C 374.641,14.003 375.433,11.663 376.549,9.719 C 377.593,7.667 378.853,5.723 380.185,4.571 C 381.482,3.311 382.706,2.663 384.001,2.627 C 385.117,2.591 386.053,3.059 387.097,4.175 C 388.07,5.147 388.645,5.975 390.085,8.747 C 391.453,11.519 394.837,19.907 395.377,20.735 C 395.809,21.311 393.361,15.011 392.893,12.815 C 392.353,10.583 391.994,8.891 391.957,7.595 L 391.957,7.595 C 390.769,5.723 389.688,4.247 388.321,3.167 C 386.953,1.979 385.369,1.331 384.109,0.935 C 382.884,0.575 381.697,0.323 380.688,1.007 C 379.392,1.583 378.132,2.879 377.052,4.751 C 375.936,6.515 374.856,9.395 374.1,11.843 C 373.272,14.291 372.625,16.523 372.157,19.079 L 372.157,19.079 z " style="fill:#ffd63f;fill-rule:evenodd;stroke:black;stroke-width:0.036;stroke-miterlimit:10" id="path65"/>
</g>
</svg>