<svg width="102" height="102" xmlns="http://www.w3.org/2000/svg">
 <g>
  <title>Layer 1</title>
  <g id="layer1">
   <path fill="#ffffff" stroke="#000000" stroke-linejoin="round" stroke-miterlimit="4" stroke-dashoffset="0" id="path3422" d="m54.6441,12.99935c-4.95914,0 -9.26141,2.67356 -11.66805,6.62195c-2.23282,-1.57758 -4.93941,-2.53144 -7.87928,-2.53143c-7.56606,0 -13.7133,6.14724 -13.7133,13.7133c0,0.55599 0.1032,1.08743 0.16765,1.62615c-6.53426,1.0426 -11.5507,6.65223 -11.5507,13.47861c0,6.76385 4.92006,12.36191 11.36629,13.4786c-0.13062,0.75945 -0.2347,1.53372 -0.2347,2.33026c0,7.56606 6.14724,13.69654 13.7133,13.69654c3.70588,0 7.05435,-1.48031 9.52221,-3.87259c2.51497,2.99157 6.23306,4.94551 10.44424,4.94551c6.00844,0 11.0595,-3.90385 12.90862,-9.28749c1.48002,0.5473 3.05805,0.90527 4.72756,0.90527c7.56606,0 13.69653,-6.14725 13.69653,-13.71331c0,-3.80464 -1.55107,-7.23919 -4.05698,-9.72337c1.26511,-2.07558 2.04526,-4.48444 2.04526,-7.09136c0,-7.56606 -6.14724,-13.69655 -13.71331,-13.69654c-0.79646,0 -1.57088,0.08735 -2.33025,0.21794c-1.22175,-6.31676 -6.77314,-11.09806 -13.44507,-11.09806z"/>
   <path fill="#ffffff" stroke="#000000" stroke-linejoin="round" stroke-miterlimit="4" stroke-dashoffset="0" id="path3424" d="m73.70631,82.47346a5.11741,5.11741 0 1 1-10.23482,0a5.11741,5.11741 0 1 110.23482,0z"/>
   <path fill="#ffffff" stroke="#000000" stroke-linejoin="round" stroke-miterlimit="4" stroke-dashoffset="0" id="path3426" d="m78.964,93.63863a3.55193,3.55193 0 1 1-7.10385,0a3.55193,3.55193 0 1 17.10385,0z"/>z"/>  
  </g>
 </g>
</svg>