<?xml version="1.0" encoding="UTF-8"?>
<svg width="194" height="184" xmlns="http://www.w3.org/2000/svg">
 <!-- Created with SVG-edit - http://svg-edit.googlecode.com/ -->
 <g>
  <title>Layer 1</title>
  <g id="svg_2">
   <!-- Created with SVG-edit - http://svg-edit.googlecode.com/ -->
   <g>
    <title>Layer 1</title>
    <g id="svg_1">
     <title>Five interlaced crescents pattern</title>
     <g>
      <path d="m22.895889,26.735371c0.300339,-0.225842 0.602448,-0.448147 0.906357,-0.668087c5.483597,-3.966518 11.559601,-7.048584 18.005737,-9.13382c6.446136,-2.085255 13.181366,-3.147684 19.959152,-3.147684c6.777817,0 13.513641,1.062429 19.959763,3.147684c6.446136,2.085236 12.522125,5.167301 18.005157,9.13382c5.483612,3.966534 10.305664,8.767277 14.289307,14.226654c3.984253,5.459358 7.080505,11.508781 9.174622,17.927116c2.094727,6.417747 3.161316,13.123413 3.161316,19.871651c0,6.747643 -1.066589,13.453918 -3.161316,19.871674c-2.094116,6.417732 -5.190369,12.467735 -9.174622,17.926521c-3.983643,5.459366 -8.805695,10.260712 -14.288696,14.227234c-5.483643,3.965942 -11.559631,7.048569 -18.005768,9.133835c-6.446121,2.085251 -13.181946,3.147079 -19.959763,3.147079c-6.777786,0 -13.513016,-1.061829 -19.959152,-3.147079c-6.446136,-2.085266 -12.522141,-5.167892 -18.005737,-9.133835c-5.483047,-3.966522 -10.305084,-8.767868 -14.289307,-14.227234c-3.983704,-5.458786 -7.079941,-11.508789 -9.174057,-17.926521c-0.116486,-0.355934 -0.229401,-0.71244 -0.339355,-1.070137c1.953384,5.49189 4.69252,10.674583 8.132309,15.388412c3.753677,5.143661 8.296631,9.66713 13.463348,13.404251c5.166107,3.737137 10.891541,6.641815 16.96521,8.606461c6.073059,1.964645 12.41925,2.965576 18.805084,2.964981c6.386414,0 12.732605,-1.000336 18.806274,-2.964981c6.073059,-1.964645 11.798477,-4.869324 16.9646,-8.606461c5.166718,-3.737122 9.710266,-8.26059 13.463379,-13.404251c3.753662,-5.143661 6.670776,-10.843658 8.644287,-16.890701c1.973511,-6.046455 2.978577,-12.365479 2.978577,-18.723503c0,-6.358032 -1.005066,-12.67646 -2.978577,-18.722908c-1.973511,-6.04705 -4.890625,-11.747044 -8.644287,-16.890705c-3.753693,-5.143646 -8.296661,-9.667107 -13.463379,-13.404247c-5.166122,-3.737125 -10.891541,-6.641232 -16.9646,-8.606464c-6.073669,-1.964642 -12.419861,-2.96558 -18.806274,-2.96558c-6.385834,0 -12.732025,1.000938 -18.805664,2.96558c-5.565216,1.800285 -10.841309,4.391026 -15.663925,7.691246zm-8.778519,113.417614c-0.122375,-0.353546 -0.241806,-0.708282 -0.357681,-1.064194c-2.094116,-6.417755 -3.16127,-13.124008 -3.16127,-19.871658c0,-6.748245 1.067154,-13.453918 3.16127,-19.871658c2.094116,-6.417747 5.190353,-12.467751 9.174637,-17.927132c3.983658,-5.459358 8.805695,-10.260117 14.288696,-14.226631c5.483627,-3.965942 11.559647,-7.048584 18.005768,-9.133842c6.446136,-2.085251 13.181946,-3.147682 19.959747,-3.147682c6.777802,0 13.513031,1.062431 19.959167,3.147682c6.446106,2.085258 12.522156,5.1679 18.005737,9.133842c5.483032,3.966515 10.305664,8.767273 14.289307,14.226631c3.983704,5.459381 7.079956,11.509384 9.174072,17.927132c2.094696,6.41774 3.161255,13.123413 3.161255,19.871658c0,6.74765 -1.066559,13.453903 -3.161255,19.871658c-2.094116,6.417725 -5.190369,12.467758 -9.174072,17.926514c-3.983643,5.459381 -8.806274,10.260727 -14.289307,14.227249c-5.483582,3.965942 -11.559631,7.048584 -18.005737,9.13382c-6.446136,2.085266 -13.181366,3.147095 -19.959167,3.147095c-0.376022,0 -0.751434,-0.00296 -1.127472,-0.00946c5.850189,-0.152542 11.647141,-1.144012 17.212936,-2.944901c6.073044,-1.964645 11.798477,-4.868729 16.964584,-8.60585c5.166718,-3.737122 9.710266,-8.2612 13.463379,-13.404831c3.753693,-5.143661 6.670776,-10.843658 8.644318,-16.890121c1.97348,-6.047043 2.978577,-12.365479 2.978577,-18.723511c0,-6.358032 -1.005096,-12.676453 -2.978577,-18.723495c-1.973541,-6.046455 -4.890625,-11.746445 -8.644318,-16.890106c-3.753113,-5.144241 -8.296661,-9.667709 -13.463379,-13.404846c-5.166107,-3.737122 -10.891541,-6.641228 -16.964584,-8.605873c-6.073654,-1.964638 -12.419876,-2.965576 -18.805695,-2.965576c-6.386398,0 -12.732605,1.000938 -18.806259,2.965576c-6.073059,1.964645 -11.798492,4.868752 -16.964615,8.605873c-5.166718,3.737137 -9.710281,8.260605 -13.463348,13.404846c-3.753723,5.143661 -6.670807,10.843651 -8.644318,16.890106c-1.973526,6.047043 -2.978607,12.365463 -2.978607,18.723495c0,5.826538 0.844284,11.622299 2.50621,17.208786l0,-0.000595zm105.629425,43.361023c-0.375458,0.0065 -0.751434,0.00946 -1.126862,0.00946c-6.777832,0 -13.513641,-1.061829 -19.959778,-3.147095c-6.446106,-2.085236 -12.522125,-5.167877 -18.005737,-9.13382c-5.483017,-3.966522 -10.305054,-8.767868 -14.289322,-14.227249c-3.983673,-5.458755 -7.07991,-11.508789 -9.174026,-17.926514c-2.094727,-6.417755 -3.161285,-13.124008 -3.161285,-19.871658c0,-6.748245 1.066559,-13.453918 3.161285,-19.871658c2.094116,-6.417747 5.190353,-12.467751 9.174026,-17.927132c3.984268,-5.459358 8.806305,-10.260117 14.289322,-14.226631c5.483612,-3.965942 11.559631,-7.048584 18.005737,-9.133842c6.446136,-2.085251 13.181946,-3.147682 19.959778,-3.147682c6.777771,0 13.513,1.062431 19.959137,3.147682c6.446136,2.085258 12.522125,5.1679 18.005768,9.133842c5.483032,3.966515 10.305054,8.767273 14.289307,14.226631c3.983673,5.459381 7.079895,11.509384 9.174011,17.927132c2.094727,6.41774 3.161316,13.123413 3.161316,19.871658c0,6.74765 -1.066589,13.453903 -3.161316,19.871658c-0.115845,0.355911 -0.235291,0.710648 -0.357666,1.064194c1.661926,-5.585892 2.506195,-11.381653 2.506195,-17.208191c0,-6.358032 -1.005066,-12.676453 -2.978607,-18.723495c-1.973511,-6.046455 -4.890594,-11.746445 -8.644287,-16.890106c-3.753082,-5.144241 -8.296631,-9.667709 -13.463379,-13.404846c-5.166107,-3.737122 -10.89093,-6.641228 -16.9646,-8.605873c-6.073639,-1.964638 -12.419861,-2.965576 -18.805664,-2.965576c-6.386414,0 -12.732605,1.000938 -18.806274,2.965576c-6.073059,1.964645 -11.798492,4.868752 -16.964615,8.605873c-5.166702,3.737137 -9.709686,8.260605 -13.463364,13.404846c-3.753693,5.143661 -6.670792,10.843651 -8.644318,16.890106c-1.97348,6.047043 -2.978577,12.365463 -2.978577,18.723495c0,6.358032 1.005096,12.676468 2.978577,18.723511c1.973526,6.046463 4.890625,11.74646 8.644318,16.890121c3.753677,5.143631 8.296661,9.667709 13.463364,13.404831c5.166122,3.737122 10.891556,6.641205 16.964615,8.60585c5.565796,1.800888 11.363342,2.792358 17.212921,2.944901zm74.061554,-86.619766c-0.109985,0.357697 -0.2229,0.714203 -0.338776,1.070137c-2.094696,6.417732 -5.190948,12.467735 -9.174622,17.926521c-3.983673,5.459366 -8.805695,10.260712 -14.289337,14.227234c-5.482971,3.965942 -11.559631,7.048569 -18.005737,9.133835c-6.446106,2.085251 -13.181335,3.147079 -19.959167,3.147079c-6.777802,0 -13.513611,-1.061829 -19.959137,-3.147079c-6.446136,-2.085266 -12.522736,-5.167892 -18.005768,-9.133835c-5.483612,-3.966522 -10.305634,-8.767868 -14.289307,-14.227234c-3.984268,-5.458786 -7.079926,-11.508789 -9.174622,-17.926521c-2.094147,-6.417755 -3.161285,-13.124031 -3.161285,-19.871674c0,-6.748238 1.067139,-13.453903 3.161285,-19.871651c2.094696,-6.418335 5.190353,-12.467758 9.174622,-17.927116c3.983673,-5.459377 8.805695,-10.26012 14.289307,-14.226654c5.483032,-3.966518 11.559631,-7.048584 18.005157,-9.13382c6.446136,-2.085255 13.181946,-3.147684 19.959747,-3.147684c6.777832,0 13.513062,1.062429 19.959167,3.147684c6.446106,2.085236 12.522766,5.167301 18.005737,9.13382c0.303894,0.21994 0.606018,0.442245 0.906372,0.668087c-4.822632,-3.30022 -10.098724,-5.890961 -15.66391,-7.691246c-6.073669,-1.964642 -12.419861,-2.96558 -18.805695,-2.96558c-6.386414,0 -12.732605,1.000938 -18.805664,2.96558c-6.073669,1.965233 -11.799072,4.869339 -16.96521,8.606464c-5.166138,3.737141 -9.709686,8.260601 -13.463379,13.404247c-3.753677,5.143661 -6.670776,10.843655 -8.644287,16.890705c-1.973511,6.046448 -2.978592,12.364876 -2.978592,18.722908c0,6.358025 1.005081,12.677048 2.978592,18.723503c1.973511,6.047043 4.89061,11.74704 8.644287,16.890701c3.753693,5.143661 8.296692,9.66713 13.463379,13.404251c5.166138,3.737137 10.891541,6.641815 16.96521,8.606461c6.073059,1.964645 12.41925,2.964981 18.805664,2.964981c6.385834,0.000595 12.732025,-1.000336 18.805695,-2.964981c6.073639,-1.964645 11.798492,-4.869324 16.9646,-8.606461c5.166718,-3.737122 9.710297,-8.26059 13.463959,-13.404251c3.439148,-4.713829 6.178284,-9.896523 8.131714,-15.388412zm-59.857361,-96.894656c0.307983,0.214023 0.614258,0.431602 0.918152,0.651542c5.483032,3.966518 10.305054,8.767262 14.289307,14.226637c3.983673,5.459375 7.079926,11.508783 9.174072,17.926538c2.094666,6.417732 3.161255,13.124008 3.161255,19.871655c0,6.748238 -1.066589,13.454498 -3.161255,19.872246c-2.094147,6.417755 -5.190399,12.467163 -9.174072,17.926537c-3.984253,5.459358 -8.806274,10.260101 -14.289307,14.226639c-5.483582,3.966515 -11.559631,7.049179 -18.005737,9.134407c-6.446136,2.085266 -13.181946,3.14711 -19.959167,3.14711c-6.777802,0 -13.513641,-1.061844 -19.959747,-3.14711c-6.446136,-2.085228 -12.522156,-5.167892 -18.005768,-9.134407c-5.483002,-3.966537 -10.305054,-8.767281 -14.289307,-14.226639c-3.983688,-5.459373 -7.079926,-11.508781 -9.174042,-17.926537c-2.094696,-6.417747 -3.16127,-13.124008 -3.16127,-19.872246c0,-6.747646 1.066574,-13.453922 3.16127,-19.871655c2.094116,-6.417755 5.190353,-12.467163 9.174042,-17.926538c3.984253,-5.459375 8.806305,-10.260118 14.289307,-14.226637c0.303894,-0.21994 0.610153,-0.437519 0.918182,-0.651542c-4.642883,3.546771 -8.747772,7.741513 -12.18692,12.455344c-3.753677,5.143661 -6.670792,10.843655 -8.644302,16.890106c-1.973526,6.047047 -2.978577,12.365475 -2.978577,18.723507c0,6.358025 1.005051,12.676453 2.978577,18.723503c1.973511,6.046448 4.890625,11.746445 8.644302,16.890106c3.753677,5.144241 8.296661,9.667702 13.463364,13.404846c5.166122,3.737122 10.891556,6.641228 16.965195,8.605865c6.073074,1.964638 12.419266,2.965576 18.805695,2.965576c6.385803,0 12.731995,-1.000938 18.805664,-2.965576c6.073669,-1.964638 11.798492,-4.868744 16.9646,-8.605865c5.166748,-3.737144 9.710297,-8.260605 13.463379,-13.404846c3.753693,-5.143661 6.670776,-10.843658 8.644318,-16.890106c1.97348,-6.04705 2.978577,-12.365479 2.978577,-18.723503c0,-6.358032 -1.005096,-12.67646 -2.978577,-18.723507c-1.973541,-6.046452 -4.890625,-11.746445 -8.644318,-16.890106c-3.439148,-4.713831 -7.544006,-8.908573 -12.18689,-12.455344z" fill="none" stroke-linejoin="round" stroke="#ffffff" stroke-width="15"/>
      <path d="m65.288483,15.233692c5.44162,0.302109 10.826508,1.303646 16.019241,2.983315c5.057922,1.635918 9.882889,3.899128 14.363205,6.732868l1.233307,0.799927l2.031433,1.409481l0.062073,0.044926l1.133392,0.841911c4.875244,3.704014 9.185883,8.097408 12.793518,13.041229c3.125793,4.284016 5.693512,8.938141 7.645721,13.852409c-0.64975,-0.019524 -1.30011,-0.029572 -1.950439,-0.029572c-0.995056,0 -1.988892,0.023064 -2.980957,0.068581c-1.96582,-5.236473 -4.636993,-10.187981 -7.941956,-14.717342c-2.82959,-3.877857 -6.09848,-7.410431 -9.738037,-10.530312l-1.054749,-0.884472l-2.094116,-1.641838l-0.876801,-0.646198l-0.267242,-0.192158c-5.211639,-3.728264 -10.971344,-6.63118 -17.075745,-8.605869c-3.685699,-1.192497 -7.469528,-2.037367 -11.301849,-2.526886l0,0zm46.409943,91.607319c1.964661,-3.507126 3.585205,-7.201706 4.835083,-11.031662c1.249817,-3.830544 2.120117,-7.767509 2.600769,-11.754723c0.074493,-0.615479 0.139526,-1.232124 0.195129,-1.849945c0.165527,-1.838715 0.248901,-3.685699 0.248901,-5.536232c0,-0.777466 -0.014771,-1.554924 -0.044373,-2.331795c-0.024841,-0.658615 -0.060303,-1.31665 -0.106415,-1.974091c-0.233521,-3.339844 -0.739044,-6.654243 -1.51059,-9.911896c1.138733,-0.06385 2.280365,-0.095772 3.423218,-0.095772c0.553375,0 1.10675,0.00769 1.659546,0.022461c1.327881,5.128876 2.001892,10.408524 2.001892,15.715347l-0.00058,0.188599c-0.00177,0.701195 -0.015961,1.401794 -0.041412,2.101822c-0.098694,2.706032 -0.373047,5.40023 -0.819397,8.066658c-0.108215,0.643837 -0.225891,1.286507 -0.354156,1.927399c-0.483612,2.421066 -1.110931,4.815521 -1.879517,7.170372c-0.768585,2.354256 -1.674347,4.658257 -2.712524,6.900177c-1.147552,0.449936 -2.309326,0.864975 -3.4841,1.245132c-1.3255,0.428642 -2.662872,0.811745 -4.011475,1.148148zm-84.192184,24.166908c3.389511,1.846405 6.94928,3.376495 10.634979,4.568985c6.10379,1.974686 12.477798,2.996918 18.894943,3.030624l0.154907,0.481262c0.201004,0.616043 0.410889,1.229156 0.630829,1.83812c-5.297379,-0.32991 -10.537415,-1.322571 -15.595337,-2.958496c-5.192123,-1.679672 -10.139481,-4.02034 -14.720322,-6.960495l0,0zm34.989304,7.389725c4.785965,-0.394348 9.516342,-1.339722 14.094788,-2.82074c5.348221,-1.729919 10.432159,-4.172852 15.11467,-7.258469l1.175339,-0.794601l1.052979,-0.744934c1.013947,-0.733719 2.004852,-1.496399 2.970917,-2.288055l1.054749,-0.884476c2.547577,-2.18338 4.913086,-4.56955 7.074005,-7.134888c2.695984,-0.340546 5.368927,-0.850174 8.002808,-1.52655l-0.111145,0.152542c-3.132904,4.293488 -6.794952,8.170731 -10.896881,11.54248l-1.10025,0.883881l-1.991852,1.502304l-2.031433,1.409485l-1.233307,0.799927c-4.480316,2.833145 -9.305283,5.096359 -14.363205,6.732864c-5.837769,1.888382 -11.918518,2.919464 -18.049515,3.063721c-0.274323,-0.87323 -0.528549,-1.75119 -0.762665,-2.634491z" fill="#ff3333"/>
      <path d="m16.230423,96.457932c1.970566,-5.059113 4.591446,-9.848038 7.800613,-14.246155c3.125793,-4.283424 6.778976,-8.153 10.869675,-11.519432l1.145203,-0.92054l1.974091,-1.488113l0.062683,-0.04493l1.154053,-0.812927c5.044937,-3.47168 10.573471,-6.196045 16.41124,-8.084419c5.057922,-1.635918 10.297363,-2.629173 15.594727,-2.958488c-0.21936,0.608963 -0.42981,1.222069 -0.630829,1.838127c-0.307449,0.941231 -0.592422,1.889557 -0.85553,2.842613c-5.609528,0.244171 -11.164673,1.242752 -16.512894,2.972672c-4.578445,1.481613 -8.963547,3.484688 -13.06842,5.966644l-1.170654,0.726021l-2.215897,1.475105l-0.888031,0.630249l-0.266632,0.193924c-5.170837,3.782646 -9.723892,8.339813 -13.49649,13.509476c-2.277954,3.121094 -4.25444,6.442581 -5.906906,9.920174zm61.367355,-35.24173c0.290878,-1.098495 0.613098,-2.188713 0.966064,-3.27066l0.534485,-1.56498c5.309174,0.327553 10.561615,1.320801 15.630188,2.960854l0.180328,0.058533c0.669281,0.218765 1.334381,0.448166 1.995392,0.688782c2.554077,0.929993 5.043121,2.022575 7.451782,3.268875l1.7323,0.93119c2.1633,1.2061 4.256226,2.539894 6.268188,3.994896c2.011902,1.455597 3.9328,3.025299 5.753174,4.700844c0.075104,1.225601 0.112915,2.45417 0.112915,3.683914c0,1.387016 -0.047852,2.772247 -0.143066,4.153351c-2.743286,-2.94429 -5.771545,-5.620178 -9.043945,-7.987442c-3.272461,-2.367256 -6.764221,-4.407585 -10.4245,-6.094948l-1.706848,-0.756172c-1.705078,-0.725426 -3.443878,-1.374588 -5.21167,-1.946899c-0.743164,-0.240044 -1.489868,-0.466476 -2.240723,-0.678734c-0.637344,-0.179726 -1.277039,-0.349396 -1.919128,-0.509041c-3.26236,-0.81057 -6.585052,-1.35685 -9.934937,-1.632362zm47.621979,28.893158c0.507263,-2.65815 0.846649,-5.346451 1.014557,-8.050117l0.111725,0.152534c3.132904,4.293472 5.704742,8.959412 7.658142,13.885498l0.504913,1.314888c0.287903,0.777458 0.561066,1.560837 0.818237,2.350121c0.255432,0.782188 0.495483,1.569107 0.718933,2.359573l0.383118,1.414215c1.321991,5.11824 1.993011,10.386627 1.993011,15.681061c0,6.111496 -0.893921,12.1875 -2.651031,18.037674c-0.918182,-0.01004 -1.835754,-0.040787 -2.752136,-0.092224c1.1026,-4.653534 1.661316,-9.424728 1.661316,-14.217789c0,-5.598892 -0.762085,-11.167648 -2.263214,-16.554291l-0.394928,-1.358635l-0.386658,-1.227379c-0.387268,-1.187172 -0.810577,-2.360764 -1.268188,-3.520157l-0.518494,-1.272324c-1.29895,-3.086769 -2.846741,-6.064186 -4.629303,-8.902649zm-10.072113,77.900986c2.811279,-2.639267 5.373657,-5.53685 7.651642,-8.658508c3.772614,-5.169678 6.718109,-10.88858 8.733582,-16.954559c0.169098,0.001175 0.338776,0.00177 0.507843,0.00177c0.65033,0 1.30072,-0.009445 1.950439,-0.028976c-1.951599,4.914276 -4.519287,9.568405 -7.645111,13.851822c-3.209747,4.398132 -6.974701,8.359314 -11.198395,11.788452l0,0z" fill="#4040ff"/>
      <path d="m98.899017,59.399948l0.180328,-0.058533c5.069153,-1.640053 10.321014,-2.633301 15.630219,-2.960854c0.470001,-0.028954 0.940643,-0.052612 1.411835,-0.070938c0.831848,-0.033112 1.664886,-0.04966 2.498535,-0.04966c0.825928,0 1.651276,0.016548 2.475464,0.048485c0.490692,0.018906 0.980225,0.043732 1.469757,0.074478c5.297394,0.329315 10.537384,1.322571 15.594757,2.958488c5.838318,1.888374 11.366272,4.61274 16.411804,8.084419c-0.293823,0.866737 -0.606628,1.725784 -0.938873,2.577148c-4.104858,-2.481956 -8.48941,-4.485031 -13.068451,-5.966644c-5.347595,-1.729919 -10.902771,-2.7285 -16.512878,-2.972672c-0.472992,-0.020119 -0.945984,-0.035469 -1.420135,-0.04554c-0.430389,-0.008858 -0.860809,-0.012993 -1.291229,-0.012993c-1.253967,0 -2.505615,0.037842 -3.754272,0.112915c-0.459412,0.027206 -0.917603,0.060318 -1.375793,0.098152c-3.349884,0.275513 -6.672546,0.821793 -9.934937,1.632362c-2.38205,-1.302467 -4.845673,-2.45417 -7.376129,-3.448616l0,0zm59.275024,13.628334l0.158478,-0.48008c0.200989,-0.616051 0.393127,-1.235062 0.575256,-1.855858c4.090668,3.366432 7.743225,7.236008 10.869659,11.519432c3.209137,4.398117 5.829468,9.187042 7.800018,14.246155c-1.652466,-3.477592 -3.628937,-6.79908 -5.906921,-9.920174c-3.772034,-5.169662 -8.325073,-9.72683 -13.49649,-13.509476l0,0zm-98.370361,23.068993c1.9534,-4.926086 4.525238,-9.592026 7.658142,-13.885498l0.11174,-0.152534l1.274689,-1.676117c1.677887,-2.131371 3.48999,-4.150414 5.425674,-6.046471l1.424255,-1.352119c1.820953,-1.675545 3.741272,-3.245247 5.753204,-4.700844c2.011932,-1.455002 4.105469,-2.788795 6.268753,-3.994896c1.19368,0.307426 2.378494,0.65152 3.553864,1.031677c1.324936,0.428642 2.633286,0.901619 3.922775,1.418938c-3.659668,1.687363 -7.152054,3.727692 -10.424484,6.094948c-3.27243,2.367264 -6.30069,5.043152 -9.043961,7.987442l-1.249863,1.382881c-1.219101,1.389961 -2.377304,2.83551 -3.469894,4.333076l-1.340897,1.912025l-1.078964,1.659576c-1.782562,2.838463 -3.330963,5.81588 -4.629913,8.902649c-0.958954,-0.614281 -1.901367,-1.256348 -2.825455,-1.925011l-1.329666,-0.989723l0,0zm-4.418213,23.119858c0,-5.294434 0.671021,-10.56282 1.993027,-15.681061l1.560226,1.165306c0.804672,0.582344 1.62233,1.14521 2.451813,1.689125c-1.500519,5.386642 -2.263214,10.955399 -2.263214,16.554291c0,4.79306 0.558716,9.564255 1.661346,14.217789l0.331085,1.332611c0.2229,0.856094 0.464706,1.707458 0.724243,2.554092l0.328125,1.035828l0.102875,0.312164c2.015503,6.065979 4.961578,11.784882 8.733582,16.954559c2.277985,3.121658 4.840363,6.019241 7.651627,8.658508c-4.224289,-3.429138 -7.988632,-7.39032 -11.19838,-11.788452c-3.125824,-4.283417 -5.692902,-8.937546 -7.645126,-13.851822l-0.525009,-1.368668c-0.285553,-0.770966 -0.556335,-1.547241 -0.811157,-2.329422l-0.023651,-0.073334l-0.42038,-1.343842c-1.757111,-5.850174 -2.651031,-11.926178 -2.651031,-18.037674l0,0z" fill="#ffff00"/>
      <path d="m98.136932,24.949875c4.480316,-2.83374 9.305267,-5.096951 14.36319,-6.732868c5.192749,-1.679668 10.577637,-2.681206 16.019257,-2.983315c-3.832306,0.489519 -7.61615,1.334389 -11.301849,2.526886c-6.10437,1.974689 -11.864105,4.877605 -17.075745,8.605869l-0.409729,-0.299164l-1.595123,-1.117409zm-29.330658,53.14283c0,-5.306824 0.673996,-10.586472 2.001892,-15.715347l0.368317,-1.35923c0.225861,-0.797562 0.467072,-1.590973 0.724854,-2.380272c0.255402,-0.782188 0.525574,-1.559052 0.811157,-2.329407l0.525589,-1.36869c1.951645,-4.914268 4.519333,-9.568394 7.645126,-13.852409c3.607651,-4.943821 7.918274,-9.337215 12.793518,-13.041229l2.17218,1.684994c-3.639587,3.119881 -6.907898,6.652454 -9.738068,10.530312c-3.304962,4.529362 -5.975525,9.480869 -7.94194,14.717342l-0.482437,1.330856l-0.412079,1.218513c-0.387268,1.18718 -0.737854,2.384407 -1.052383,3.589912l-0.331085,1.332619c-0.771545,3.257652 -1.277054,6.572052 -1.510574,9.911896c-1.980011,1.852898 -3.841797,3.829948 -5.573486,5.918739l-0.00058,-0.188599zm29.330658,53.142845l1.595123,-1.117416l2.370789,-1.799698c4.682526,3.085617 9.766479,5.528549 15.114685,7.258469c4.57843,1.481018 9.308838,2.426392 14.094788,2.82074c0.458221,0.037247 0.916412,0.070358 1.375793,0.097549c0.88623,0.053802 1.774261,0.088089 2.663452,0.103455c0.363037,0.006516 0.726624,0.010056 1.09082,0.010056c0.109985,0 0.21994,-0.001175 0.329315,-0.001175c6.417145,-0.033707 12.791168,-1.055939 18.894958,-3.030624c3.685699,-1.19249 7.245453,-2.72258 10.634949,-4.568985c-4.580231,2.93959 -9.528168,5.280823 -14.720306,6.960495c-5.057922,1.635925 -10.297974,2.628586 -15.595337,2.958496c-0.489502,0.030746 -0.979065,0.054977 -1.469788,0.074493c-0.824158,0.031921 -1.649506,0.047882 -2.475464,0.047882l-0.076843,0c-0.471802,-0.000595 -0.942993,-0.005905 -1.413635,-0.017151c-6.131592,-0.144257 -12.212341,-1.175339 -18.05011,-3.063721c-5.057922,-1.636505 -9.882874,-3.899719 -14.36319,-6.732864l0,0zm-28.115112,-40.858368c0.662766,-1.03524 1.357468,-2.050957 2.084076,-3.04599c0.818848,-1.122734 1.675537,-2.215332 2.567688,-3.276566c0.481262,3.987213 1.350952,7.924179 2.6008,11.754723c1.250443,3.829956 2.870392,7.524536 4.835632,11.031662l0.934128,1.610497c0.951279,1.584496 1.974686,3.127586 3.066696,4.624573l1.41243,1.860596l1.251602,1.534805c2.160934,2.565338 4.527008,4.951508 7.074036,7.134888c-0.883301,0.717758 -1.787872,1.41185 -2.712555,2.080536l-1.356262,0.953049c-4.101929,-3.37175 -7.763977,-7.248993 -10.896881,-11.54248l-0.111145,-0.152542l-1.207275,-1.725189c-1.51767,-2.246651 -2.886963,-4.587318 -4.099548,-7.005424l-0.851379,-1.766586c-1.038177,-2.24192 -1.943939,-4.545921 -2.712524,-6.900177c-0.768616,-2.354851 -1.395905,-4.749306 -1.879517,-7.170372z" fill="#00f000"/>
      <path d="m37.242035,73.537094l2.280975,-1.53598c1.855652,4.410187 4.22023,8.597046 7.049988,12.474663c3.30542,4.529472 7.209732,8.588547 11.60437,12.068565l1.121796,0.867798l1.03714,0.766678c1.01416,0.733559 2.049133,1.435677 3.103912,2.105659l1.170685,0.725693c2.873245,1.737198 5.883423,3.239906 9.001358,4.493187c1.158371,2.447685 2.471451,4.821281 3.931625,7.106476l-0.180466,-0.058044c-5.068924,-1.639786 -9.904465,-3.909462 -14.393143,-6.751587l-1.184509,-0.768623l-2.049927,-1.422073l-1.974396,-1.487915l-1.145172,-0.92038c-4.091003,-3.366737 -7.743866,-7.236298 -10.869843,-11.519791c-3.607941,-4.94429 -6.472275,-10.383171 -8.504395,-16.144325zm-3.572174,-20.86087c0,-5.435665 0.707001,-10.8438 2.099823,-16.089638c-0.716232,3.779953 -1.078308,7.623856 -1.078308,11.482002c0,6.390114 0.993362,12.741325 2.943848,18.827667l-0.411987,0.295563l-1.560577,1.165253c-1.321991,-5.117844 -1.992798,-10.386147 -1.992798,-15.680847zm101.960754,43.868118c4.394592,-3.480019 8.298889,-7.539093 11.604309,-12.068565c2.829773,-3.877617 5.194397,-8.064476 7.050049,-12.474663l0.518646,-1.27227c0.32486,-0.822769 0.632263,-1.653091 0.921875,-2.490166l0.34613,-1.029793l0.101105,-0.31263c1.9505,-6.086342 2.943848,-12.437553 2.943848,-18.827667c0,-3.858147 -0.362061,-7.702049 -1.078308,-11.482002c1.392792,5.245838 2.099823,10.653973 2.099823,16.089638c0,5.294701 -0.670807,10.563004 -1.992828,15.680847l-0.382965,1.414734c-0.224091,0.790489 -0.463837,1.577026 -0.719025,2.359306l-0.023895,0.072784l-0.453461,1.333199c-2.032166,5.761154 -4.896484,11.200035 -8.504395,16.144325c-3.125977,4.283493 -6.77887,8.153053 -10.869873,11.519791c-0.181946,-0.62114 -0.373596,-1.239899 -0.574615,-1.855988c-0.307404,-0.941795 -0.6362,-1.875633 -0.98642,-2.80088zm-50.758881,12.294258c3.957336,0.776703 7.987,1.169617 12.032227,1.169617c4.045258,0 8.07489,-0.392914 12.032196,-1.169472c0.610962,-0.120003 1.220245,-0.249008 1.827576,-0.387215c1.80719,-0.41114 3.59729,-0.903099 5.364838,-1.474869c0.743256,-0.240532 1.481232,-0.494606 2.213959,-0.762306l1.853149,-0.710999c3.11792,-1.25325 6.128113,-2.755989 9.001343,-4.493187c0.412964,1.058533 0.796265,2.129372 1.149292,3.211357c0.171082,0.524216 0.3349,1.050507 0.491333,1.578674c-4.488647,2.842125 -9.324219,5.111801 -14.393127,6.751587l-0.18042,0.058044c-0.670532,0.214767 -1.344238,0.418198 -2.020844,0.610199c-2.615448,0.742416 -5.273895,1.315536 -7.958588,1.716522c-0.648773,0.096878 -1.299011,0.183578 -1.950592,0.260452c-2.462433,0.290024 -4.94339,0.436096 -7.430115,0.436096c-2.486725,0 -4.967712,-0.146072 -7.430115,-0.436096c-0.784027,-0.947495 -1.539734,-1.919296 -2.265869,-2.914352c-0.818924,-1.122276 -1.598053,-2.27095 -2.336243,-3.444054z" fill="#00ffff"/>
      <path d="m-0.000473,96.894241c0.109955,0.357697 0.22287,0.714203 0.339355,1.070137c2.094116,6.417732 5.190353,12.467735 9.174057,17.926521l1.112076,1.479248c-0.017746,0.615463 -0.026596,1.230927 -0.026596,1.846985c0,6.748245 1.067154,13.453903 3.16127,19.871658c0.115875,0.355911 0.235306,0.710648 0.357681,1.064194c-1.661926,-5.585892 -2.50621,-11.381653 -2.50621,-17.208191c0,-1.388779 0.047928,-2.775803 0.143692,-4.158661c3.507141,4.272766 7.555252,8.082626 12.047394,11.332001c5.483597,3.965942 11.559601,7.048569 18.005737,9.133835c5.357086,1.73288 10.914612,2.759232 16.529465,3.056641c2.019028,5.225235 4.716782,10.169632 8.027649,14.706696c3.984268,5.459381 8.806305,10.260727 14.289322,14.227249c4.492126,3.248779 9.382141,5.905136 14.547089,7.905869c-1.290649,0.517899 -2.6008,0.991486 -3.927505,1.420685c-5.565796,1.800888 -11.362747,2.792358 -17.212936,2.944901c0.376038,0.0065 0.75145,0.00946 1.127472,0.00946c6.777802,0 13.513031,-1.061829 19.959167,-3.147095l1.756531,-0.595947l1.75592,0.595947c6.446136,2.085266 13.181946,3.147095 19.959778,3.147095c0.375427,0 0.751404,-0.00296 1.126862,-0.00946c-5.849579,-0.152542 -11.647125,-1.144012 -17.212921,-2.944901c-1.326721,-0.429199 -2.636261,-0.902786 -3.927521,-1.420685c5.164948,-2.000732 10.054962,-4.657089 14.547089,-7.905869c5.483032,-3.966522 10.305664,-8.767868 14.289307,-14.227249c3.310883,-4.537064 6.008636,-9.481461 8.027649,-14.706696c5.615479,-0.297409 11.172394,-1.323761 16.52948,-3.056641c6.446106,-2.085266 12.522766,-5.167892 18.005737,-9.133835c4.492126,-3.249374 8.540283,-7.059235 12.047424,-11.332001c0.095764,1.382858 0.143646,2.769882 0.143646,4.158661c0,5.826538 -0.844269,11.622299 -2.506195,17.208191c0.122375,-0.353546 0.241821,-0.708282 0.357666,-1.064194c2.094147,-6.417755 3.161316,-13.123413 3.161316,-19.871658c0,-0.616058 -0.008881,-1.231522 -0.026611,-1.846985l1.112091,-1.479248c3.983673,-5.458786 7.079926,-11.508789 9.174622,-17.926521c0.115875,-0.355934 0.22879,-0.71244 0.338776,-1.070137c-1.95343,5.49189 -4.692566,10.674583 -8.131714,15.388412c-0.820038,1.123322 -1.677887,2.217682 -2.571228,3.280121c-0.315125,-5.509033 -1.341492,-10.960129 -3.057251,-16.2173c-2.094116,-6.417747 -5.190338,-12.467751 -9.174011,-17.927132c-3.310852,-4.537048 -7.201111,-8.619453 -11.568481,-12.146126c1.451416,-5.408508 2.18811,-10.987907 2.18811,-16.59626c0,-6.747646 -1.066589,-13.453922 -3.161255,-19.871655c-1.715759,-5.257172 -4.103699,-10.267807 -7.101227,-14.908924c1.350342,0.336407 2.690094,0.719524 4.016785,1.148746c5.565186,1.800285 10.841278,4.391026 15.66391,7.691246c-0.300354,-0.225246 -0.602478,-0.448147 -0.906372,-0.668087c-5.483582,-3.965923 -11.559631,-7.048584 -18.005737,-9.13382c-0.588257,-0.190983 -1.179504,-0.372475 -1.773071,-0.5457l-1.068359,-1.51c-3.984253,-5.459375 -8.806885,-10.259523 -14.289307,-14.226637c-0.303894,-0.21994 -0.610168,-0.437519 -0.918152,-0.651542c4.642883,3.546771 8.747742,7.741513 12.18689,12.455344c0.820038,1.123323 1.600464,2.27326 2.339478,3.448023c-5.360046,-1.40416 -10.88446,-2.117172 -16.436646,-2.117172c-6.777802,0 -13.513611,1.062429 -19.959747,3.147684c-5.357086,1.73288 -10.458771,4.154526 -15.176727,7.199924c-4.718567,-3.045399 -9.820251,-5.467045 -15.177338,-7.199924c-6.446121,-2.085255 -13.181946,-3.147684 -19.959763,-3.147684c-5.552185,0 -11.076584,0.713013 -16.43605,2.117172c0.738434,-1.174763 1.51886,-2.324699 2.338898,-3.448023c3.439148,-4.713831 7.544037,-8.908573 12.18692,-12.455344c-0.308029,0.214023 -0.614288,0.431602 -0.918182,0.651542c-5.482422,3.967113 -10.305054,8.767262 -14.289307,14.226637l-1.068344,1.51c-0.593613,0.173225 -1.184219,0.354717 -1.773087,0.5457c-6.446136,2.085236 -12.522141,5.167896 -18.005737,9.13382c-0.303909,0.21994 -0.606018,0.442841 -0.906357,0.668087c4.822617,-3.30022 10.098709,-5.890961 15.663925,-7.691246c1.326691,-0.429222 2.666382,-0.81234 4.016754,-1.148746c-2.997482,4.641117 -5.385437,9.651752 -7.101196,14.908924c-2.094696,6.417732 -3.16127,13.124008 -3.16127,19.871655c0,5.608353 0.736649,11.187752 2.18811,16.59626c-4.367355,3.526672 -8.25705,7.609077 -11.567886,12.146126c-3.984283,5.459381 -7.080521,11.509384 -9.174637,17.927132c-1.715714,5.257172 -2.742096,10.708267 -3.056625,16.2173c-0.893951,-1.062439 -1.751221,-2.156799 -2.571228,-3.280121c-3.439789,-4.713829 -6.178925,-9.896523 -8.132309,-15.388412zm65.288956,-81.660549c5.44162,0.302109 10.826508,1.303646 16.019241,2.983315c5.057922,1.635918 9.882889,3.899128 14.363205,6.732868l1.233307,0.799927l2.031433,1.409481l0.062073,0.044926l1.133392,0.841911c4.875244,3.704014 9.185883,8.097408 12.793518,13.041229c3.125793,4.284016 5.693512,8.938141 7.645721,13.852409c-0.64975,-0.019524 -1.30011,-0.029572 -1.950439,-0.029572c-0.995056,0 -1.988892,0.023064 -2.980957,0.068581c-1.96582,-5.236473 -4.636993,-10.187981 -7.941956,-14.717342c-2.82959,-3.877857 -6.09848,-7.410431 -9.738037,-10.530312l-1.054749,-0.884472l-2.094116,-1.641838l-0.876801,-0.646198l-0.267242,-0.192158c-5.211639,-3.728264 -10.971344,-6.63118 -17.075745,-8.605869c-3.685699,-1.192497 -7.469528,-2.037367 -11.301849,-2.526886l0,0zm46.409943,91.607319c1.964661,-3.507126 3.585205,-7.201706 4.835083,-11.031662c1.249817,-3.830544 2.120117,-7.767509 2.600769,-11.754723c0.074493,-0.615479 0.139526,-1.232124 0.195129,-1.849945c0.165527,-1.838715 0.248901,-3.685699 0.248901,-5.536232c0,-0.777466 -0.014771,-1.554924 -0.044373,-2.331795c-0.024841,-0.658615 -0.060303,-1.31665 -0.106415,-1.974091c-0.233521,-3.339844 -0.739044,-6.654243 -1.51059,-9.911896c1.138733,-0.06385 2.280365,-0.095772 3.423218,-0.095772c0.553375,0 1.10675,0.00769 1.659546,0.022461c1.327881,5.128876 2.001892,10.408524 2.001892,15.715347l-0.00058,0.188599c-0.00177,0.701195 -0.015961,1.401794 -0.041412,2.101822c-0.098694,2.706032 -0.373047,5.40023 -0.819397,8.066658c-0.108215,0.643837 -0.225891,1.286507 -0.354156,1.927399c-0.483612,2.421066 -1.110931,4.815521 -1.879517,7.170372c-0.768585,2.354256 -1.674347,4.658257 -2.712524,6.900177c-1.147552,0.449936 -2.309326,0.864975 -3.4841,1.245132c-1.3255,0.428642 -2.662872,0.811745 -4.011475,1.148148zm-84.192184,24.166908c3.389511,1.846405 6.94928,3.376495 10.634979,4.568985c6.10379,1.974686 12.477798,2.996918 18.894943,3.030624l0.154907,0.481262c0.201004,0.616043 0.410889,1.229156 0.630829,1.83812c-5.297379,-0.32991 -10.537415,-1.322571 -15.595337,-2.958496c-5.192123,-1.679672 -10.139481,-4.02034 -14.720322,-6.960495l0,0zm34.989304,7.389725c4.785965,-0.394348 9.516342,-1.339722 14.094788,-2.82074c5.348221,-1.729919 10.432159,-4.172852 15.11467,-7.258469l1.175339,-0.794601l1.052979,-0.744934c1.013947,-0.733719 2.004852,-1.496399 2.970917,-2.288055l1.054749,-0.884476c2.547577,-2.18338 4.913086,-4.56955 7.074005,-7.134888c2.695984,-0.340546 5.368927,-0.850174 8.002808,-1.52655l-0.111145,0.152542c-3.132904,4.293488 -6.794952,8.170731 -10.896881,11.54248l-1.10025,0.883881l-1.991852,1.502304l-2.031433,1.409485l-1.233307,0.799927c-4.480316,2.833145 -9.305283,5.096359 -14.363205,6.732864c-5.837769,1.888382 -11.918518,2.919464 -18.049515,3.063721c-0.274323,-0.87323 -0.528549,-1.75119 -0.762665,-2.634491zm-46.265121,-41.939713c1.970566,-5.059113 4.591446,-9.848038 7.800613,-14.246155c3.125793,-4.283424 6.778976,-8.153 10.869675,-11.519432l1.145203,-0.92054l1.974091,-1.488113l0.062683,-0.04493l1.154053,-0.812927c5.044937,-3.47168 10.573471,-6.196045 16.41124,-8.084419c5.057922,-1.635918 10.297363,-2.629173 15.594727,-2.958488c-0.21936,0.608963 -0.42981,1.222069 -0.630829,1.838127c-0.307449,0.941231 -0.592422,1.889557 -0.85553,2.842613c-5.609528,0.244171 -11.164673,1.242752 -16.512894,2.972672c-4.578445,1.481613 -8.963547,3.484688 -13.06842,5.966644l-1.170654,0.726021l-2.215897,1.475105l-0.888031,0.630249l-0.266632,0.193924c-5.170837,3.782646 -9.723892,8.339813 -13.49649,13.509476c-2.277954,3.121094 -4.25444,6.442581 -5.906906,9.920174zm61.367355,-35.24173c0.290878,-1.098495 0.613098,-2.188713 0.966064,-3.27066l0.534485,-1.56498c5.309174,0.327553 10.561615,1.320801 15.630188,2.960854l0.180328,0.058533c0.669281,0.218765 1.334381,0.448166 1.995392,0.688782c2.554077,0.929993 5.043121,2.022575 7.451782,3.268875l1.7323,0.93119c2.1633,1.2061 4.256226,2.539894 6.268188,3.994896c2.011902,1.455597 3.9328,3.025299 5.753174,4.700844c0.075104,1.225601 0.112915,2.45417 0.112915,3.683914c0,1.387016 -0.047852,2.772247 -0.143066,4.153351c-2.743286,-2.94429 -5.771545,-5.620178 -9.043945,-7.987442c-3.272461,-2.367256 -6.764221,-4.407585 -10.4245,-6.094948l-1.706848,-0.756172c-1.705078,-0.725426 -3.443878,-1.374588 -5.21167,-1.946899c-0.743164,-0.240044 -1.489868,-0.466476 -2.240723,-0.678734c-0.637344,-0.179726 -1.277039,-0.349396 -1.919128,-0.509041c-3.26236,-0.81057 -6.585052,-1.35685 -9.934937,-1.632362zm47.621979,28.893158c0.507263,-2.65815 0.846649,-5.346451 1.014557,-8.050117l0.111725,0.152534c3.132904,4.293472 5.704742,8.959412 7.658142,13.885498l0.504303,1.314888c0.288513,0.777458 0.561676,1.560837 0.818848,2.350121c0.255432,0.782188 0.495483,1.569107 0.718933,2.359573l0.383118,1.414215c1.321991,5.11824 1.993011,10.386627 1.993011,15.681061c0,6.111496 -0.893921,12.1875 -2.651031,18.037674c-0.918182,-0.01004 -1.836365,-0.040787 -2.752136,-0.092224c1.1026,-4.653534 1.661316,-9.424728 1.661316,-14.217789c0,-5.598892 -0.762085,-11.167648 -2.263214,-16.554291l-0.394928,-1.358635l-0.386658,-1.227379c-0.387268,-1.187172 -0.810577,-2.360764 -1.268188,-3.520157l-0.518494,-1.272324c-1.29895,-3.086769 -2.846741,-6.064186 -4.629883,-8.902649l0.00058,0zm-10.072113,77.900986c2.811279,-2.639267 5.373657,-5.53685 7.651642,-8.658508c3.772614,-5.169678 6.718109,-10.88858 8.733582,-16.954559c0.169098,0.001175 0.338776,0.00177 0.507843,0.00177c0.65033,0 1.30072,-0.009445 1.950439,-0.028976c-1.951599,4.914276 -4.519287,9.568405 -7.645111,13.851822c-3.209747,4.398132 -6.974701,8.359314 -11.198395,11.788452zm-16.248627,-108.610397l0.180328,-0.058533c5.069153,-1.640053 10.321014,-2.633301 15.630219,-2.960854c0.470001,-0.028954 0.940643,-0.052612 1.411835,-0.070938c0.831848,-0.033112 1.664886,-0.04966 2.497925,-0.04966c0.826538,0 1.651886,0.016548 2.476074,0.048485c0.490692,0.018906 0.980225,0.043732 1.469757,0.074478c5.297394,0.329315 10.537384,1.322571 15.594757,2.958488c5.838318,1.888374 11.366272,4.61274 16.411804,8.084419c-0.293823,0.866737 -0.606628,1.725784 -0.938873,2.577148c-4.104858,-2.481956 -8.48941,-4.485031 -13.068451,-5.966644c-5.348206,-1.729919 -10.902771,-2.7285 -16.512878,-2.972672c-0.472992,-0.020119 -0.945984,-0.035469 -1.420135,-0.04554c-0.430389,-0.008858 -0.860809,-0.012993 -1.291229,-0.012993c-1.253967,0 -2.505615,0.037842 -3.754272,0.112915c-0.459412,0.027206 -0.917603,0.060318 -1.375793,0.098152c-3.349884,0.275513 -6.672546,0.821793 -9.934937,1.632362c-2.38205,-1.302467 -4.845673,-2.45417 -7.376129,-3.448616l0,0zm59.275024,13.628334l0.158478,-0.48008c0.200989,-0.616051 0.392548,-1.235062 0.575256,-1.855858c4.090088,3.366432 7.743225,7.236008 10.86908,11.519432c3.209717,4.398117 5.830048,9.187042 7.800598,14.246155c-1.652466,-3.477592 -3.628937,-6.79908 -5.906921,-9.920174c-3.772034,-5.169662 -8.325073,-9.72683 -13.49649,-13.509476l0,0zm-98.370361,23.068993c1.9534,-4.926086 4.525238,-9.592026 7.658142,-13.885498l0.11174,-0.152534l1.274689,-1.676117c1.677887,-2.131371 3.48999,-4.150414 5.425674,-6.046471l1.424255,-1.352119c1.820374,-1.675545 3.741272,-3.245247 5.753204,-4.700844c2.011932,-1.455002 4.104858,-2.788795 6.268753,-3.994896c1.19368,0.307426 2.378494,0.65152 3.553864,1.031677c1.324936,0.428642 2.633286,0.901619 3.922775,1.418938c-3.659668,1.687363 -7.152054,3.727692 -10.424484,6.094948c-3.27243,2.367264 -6.30069,5.043152 -9.043961,7.987442l-1.249863,1.382881c-1.219101,1.389961 -2.377304,2.83551 -3.469894,4.333076l-1.340897,1.912025l-1.078964,1.659576c-1.782562,2.838463 -3.330963,5.81588 -4.629913,8.902649c-0.958954,-0.614281 -1.901367,-1.256348 -2.825455,-1.925011l-1.329666,-0.989723zm-4.418213,23.119858c0,-5.294434 0.671021,-10.56282 1.993027,-15.681061l1.560226,1.165306c0.804672,0.582344 1.62233,1.14521 2.451813,1.689125c-1.500519,5.386642 -2.263214,10.955399 -2.263214,16.554291c0,4.79306 0.558716,9.564255 1.661346,14.217789l0.331085,1.332611c0.2229,0.856094 0.464706,1.707458 0.724243,2.554092l0.328125,1.035828l0.102875,0.312164c2.015503,6.065979 4.961578,11.784882 8.733582,16.954559c2.277985,3.121658 4.840363,6.019241 7.651627,8.658508c-4.224289,-3.429138 -7.988632,-7.39032 -11.19838,-11.788452c-3.125824,-4.283417 -5.692902,-8.937546 -7.645126,-13.851822l-0.525009,-1.368668c-0.285553,-0.770966 -0.556335,-1.547241 -0.811157,-2.329422l-0.023651,-0.073334l-0.42038,-1.343842c-1.757111,-5.850174 -2.651031,-11.926178 -2.651031,-18.037674l0,0zm42.751465,-94.267258c4.480316,-2.83374 9.305267,-5.096951 14.36319,-6.732868c5.192749,-1.679668 10.577637,-2.681206 16.019257,-2.983315c-3.832306,0.489519 -7.61615,1.334389 -11.301849,2.526886c-6.10437,1.974689 -11.864105,4.877605 -17.075745,8.605869l-0.409729,-0.299164l-1.595123,-1.117409zm-29.330658,53.14283c0,-5.306824 0.673996,-10.586472 2.001892,-15.715347l0.368317,-1.35923c0.225861,-0.797562 0.467072,-1.590973 0.724854,-2.380272c0.255402,-0.782188 0.525574,-1.559052 0.811157,-2.329407l0.525589,-1.36869c1.951645,-4.914268 4.519333,-9.568394 7.645126,-13.852409c3.607651,-4.943821 7.918274,-9.337215 12.793518,-13.041229l2.17218,1.684994c-3.639587,3.119881 -6.907898,6.652454 -9.738068,10.530312c-3.304962,4.529362 -5.976105,9.480869 -7.94194,14.717342l-0.482437,1.330856l-0.412079,1.218513c-0.387268,1.18718 -0.737854,2.384407 -1.052383,3.589912l-0.331085,1.332619c-0.771545,3.257652 -1.277054,6.572052 -1.510574,9.911896c-1.980011,1.852898 -3.841797,3.829948 -5.573486,5.918739l-0.00058,-0.188599zm29.330658,53.142845l1.595123,-1.117416l2.370789,-1.799698c4.682526,3.085617 9.766479,5.528549 15.114685,7.258469c4.57843,1.481018 9.308838,2.426392 14.094788,2.82074c0.458221,0.037247 0.916412,0.070358 1.375793,0.097549c0.88623,0.053802 1.774261,0.088089 2.663452,0.103455c0.363037,0.006516 0.726624,0.010056 1.09082,0.010056c0.109985,0 0.21994,-0.001175 0.329315,-0.001175c6.417145,-0.033707 12.791168,-1.055939 18.894958,-3.030624c3.685699,-1.19249 7.245453,-2.72258 10.634949,-4.568985c-4.580811,2.93959 -9.528168,5.280823 -14.720306,6.960495c-5.057922,1.635925 -10.297974,2.628586 -15.595337,2.958496c-0.489502,0.030746 -0.979065,0.054977 -1.469788,0.074493c-0.824158,0.031921 -1.649506,0.047882 -2.475464,0.047882l-0.076843,0c-0.471802,-0.000595 -0.942993,-0.005905 -1.413635,-0.017151c-6.131592,-0.144257 -12.212341,-1.175339 -18.05011,-3.063721c-5.057922,-1.636505 -9.882874,-3.899719 -14.36319,-6.732864l0,0zm-28.115112,-40.858368c0.662766,-1.03524 1.357468,-2.050957 2.084076,-3.04599c0.818848,-1.122734 1.675537,-2.215332 2.567688,-3.276566c0.481262,3.987213 1.350952,7.924179 2.6008,11.754723c1.250443,3.829956 2.870392,7.524536 4.835037,11.031662l0.934723,1.610497c0.951279,1.584496 1.974686,3.127586 3.066696,4.624573l1.41243,1.860596l1.251602,1.534805c2.160934,2.565338 4.527008,4.951508 7.074036,7.134888c-0.883301,0.717758 -1.787872,1.41185 -2.712555,2.080536l-1.356262,0.953049c-4.101929,-3.37175 -7.763977,-7.248993 -10.896881,-11.54248l-0.111145,-0.152542l-1.207275,-1.725189c-1.51767,-2.246651 -2.886963,-4.587318 -4.099548,-7.005424l-0.851379,-1.766586c-1.038177,-2.24192 -1.943939,-4.545921 -2.712524,-6.900177c-0.768616,-2.354851 -1.395905,-4.749306 -1.879517,-7.170372zm-32.779846,-16.839859l2.280914,-1.535995c1.85585,4.409935 4.220169,8.596992 7.050385,12.474251c3.304932,4.529961 7.209381,8.588715 11.603943,12.068672l1.122162,0.867912l1.037003,0.766815c1.013962,0.733131 2.049179,1.435501 3.103928,2.105354l1.170624,0.726021c2.873352,1.73703 5.883286,3.239922 9.001404,4.492722c1.158203,2.447678 2.471329,4.821434 3.931641,7.106529l-0.180328,-0.057953c-5.069153,-1.63945 -9.904785,-3.90918 -14.393372,-6.751183l-1.184814,-0.7686l-2.049759,-1.422493l-1.974106,-1.487518l-1.145203,-0.92054c-4.091278,-3.367012 -7.743866,-7.236588 -10.87027,-11.520004c-3.607635,-4.94442 -6.472137,-10.383102 -8.50415,-16.14399zm-3.57222,-20.861366c0,-5.435127 0.707138,-10.843658 2.100037,-16.089588c-0.716553,3.780281 -1.078384,7.623837 -1.078384,11.482174c0,6.389946 0.993256,12.741478 2.94371,18.827553l-0.412094,0.295616l-1.560226,1.165306c-1.321991,-5.117645 -1.993042,-10.386055 -1.993042,-15.681061zm31.453201,47.063866c1.104385,-2.652229 2.396805,-5.222298 3.867188,-7.691841c0.44519,1.994209 0.98616,3.9683 1.621735,5.916397c0.635559,1.948074 1.363937,3.86187 2.18103,5.735466c-2.647522,-1.136932 -5.21048,-2.460098 -7.669952,-3.960022zm-29.075851,-51.67128c0,-6.358032 1.005051,-12.67646 2.978577,-18.723507c1.351547,-4.141533 3.145889,-8.120464 5.348801,-11.869423c4.261566,-0.927036 8.617111,-1.397068 12.990997,-1.397068c6.386414,0 12.732605,1.000938 18.806274,2.96558c5.837738,1.888966 11.353287,4.645248 16.360367,8.174862c-4.847458,3.731819 -9.140335,8.134087 -12.745621,13.074951c-3.310852,4.537048 -6.008636,9.482063 -8.027649,14.707314c-5.615463,0.296783 -11.172974,1.323738 -16.53006,3.056618c-5.834213,1.887199 -11.365707,4.591454 -16.42836,8.028847c-1.824524,-5.832443 -2.753326,-11.906685 -2.753326,-18.018173zm71.956192,15.759094c2.813049,-0.629059 5.66748,-1.058296 8.542603,-1.284737c0.672241,2.792351 1.144043,5.627876 1.412445,8.485855c-1.537781,-1.352127 -3.140594,-2.632729 -4.804901,-3.837044c-1.664307,-1.203743 -3.382965,-2.325874 -5.150146,-3.364075zm16.409424,-1.395874c5.344696,0.269592 10.634979,1.239189 15.733093,2.88871c4.550079,1.471573 8.904449,3.471085 12.975037,5.953049c-1.828064,4.389854 -4.170532,8.555618 -6.982971,12.40863c-3.150635,4.317719 -6.857605,8.198517 -11.022797,11.543663c-1.976471,-4.892982 -4.551849,-9.531143 -7.672333,-13.807472l-1.112061,-1.478638c0.0177,-0.615471 0.026611,-1.230927 0.026611,-1.847c0,-5.285553 -0.65451,-10.545082 -1.94458,-15.660942zm11.217926,34.112488c4.394562,-3.479958 8.299011,-7.538712 11.604553,-12.068672c2.82962,-3.877258 5.193909,-8.064316 7.049774,-12.474251l0.518494,-1.272324c0.325195,-0.822983 0.632629,-1.653053 0.922302,-2.490242l0.345886,-1.029915l0.101074,-0.312752c1.95047,-6.086075 2.943726,-12.437607 2.943726,-18.827553c0,-3.858337 -0.361816,-7.701893 -1.0784,-11.482174c1.392944,5.24593 2.100037,10.654461 2.100037,16.089588c0,5.295006 -0.671051,10.563416 -1.993011,15.681061l-0.382538,1.414787c-0.224091,0.790466 -0.464111,1.576805 -0.719513,2.359001l-0.023651,0.073303l-0.453461,1.333214c-2.032043,5.760887 -4.896545,11.19957 -8.504181,16.14399c-3.126404,4.283417 -6.778992,8.152992 -10.87027,11.520004c-0.181519,-0.621376 -0.373657,-1.239784 -0.574646,-1.855843c-0.307434,-0.941826 -0.636169,-1.875954 -0.986176,-2.801224l0,0zm-34.354889,-69.325264c5.00708,-3.529613 10.523193,-6.285896 16.360962,-8.174862c6.073059,-1.964642 12.41925,-2.96558 18.805664,-2.96558c4.373901,0 8.729431,0.470032 12.990997,1.397068c2.202911,3.748959 3.997284,7.72789 5.348816,11.869423c1.97348,6.047047 2.978577,12.365475 2.978577,18.723507c0,6.111488 -0.928802,12.18573 -2.753326,18.018173c-5.062683,-3.437393 -10.594177,-6.141647 -16.428375,-8.028847c-5.357086,-1.73288 -10.914581,-2.759239 -16.529449,-3.056618c-2.019623,-5.22525 -4.717407,-10.170265 -8.028259,-14.707314c-3.605286,-4.940865 -7.898163,-9.343132 -12.745605,-13.074951l0,0zm-16.404144,81.619774c3.957672,0.776291 7.986862,1.169441 12.032623,1.169441c4.045166,0 8.074341,-0.39315 12.032013,-1.169441c0.610748,-0.120018 1.220276,-0.248901 1.827484,-0.387253c1.807373,-0.410889 3.596985,-0.902786 5.364746,-1.475098c0.743164,-0.240044 1.481628,-0.49427 2.214172,-0.762093l1.852905,-0.711243c3.118103,-1.2528 6.128021,-2.755692 9.001373,-4.492722c0.413239,1.058296 0.796356,2.129013 1.149353,3.210945c0.170868,0.524414 0.335205,1.050606 0.491302,1.57917c-4.488586,2.842003 -9.324219,5.111732 -14.392761,6.751183l-0.180908,0.057953c-0.670471,0.215195 -1.343872,0.418579 -2.020813,0.610138c-2.61499,0.742584 -5.273743,1.316071 -7.958496,1.716934c-0.64856,0.096939 -1.29895,0.183273 -1.950439,0.260117c-2.462463,0.290314 -4.943237,0.436325 -7.429932,0.436325c-2.486694,0 -4.968079,-0.146011 -7.430527,-0.436325c-0.783951,-0.947144 -1.539551,-1.919098 -2.265579,-2.914139c-0.818817,-1.122154 -1.598083,-2.270897 -2.336517,-3.443893zm5.879745,7.851471c2.042099,0.194519 4.095413,0.292664 6.152878,0.292664c2.056854,0 4.110199,-0.098145 6.152863,-0.292664c-1.904938,2.155609 -3.960602,4.173462 -6.152863,6.038773c-2.192871,-1.865311 -4.248535,-3.883163 -6.152878,-6.038773zm-78.842209,0.264282c0.43158,-4.321854 1.329071,-8.591087 2.680618,-12.733215c1.973511,-6.046455 4.890594,-11.746445 8.644318,-16.890106c3.607651,-4.94442 7.94545,-9.315346 12.864441,-12.966156c2.06691,5.743752 4.945602,11.168823 8.550888,16.109703c3.310852,4.537048 7.201111,8.619453 11.568497,12.146111c-1.451462,5.409126 -2.188126,10.98793 -2.188126,16.596283c0,6.107346 0.87384,12.181 2.592514,18.037079c-6.134537,-0.075089 -12.224747,-1.072479 -18.062485,-2.960846c-6.073669,-1.964645 -11.798523,-4.869324 -16.96463,-8.606461c-3.538467,-2.559418 -6.785477,-5.488342 -9.686035,-8.732391zm51.786575,25.416153c6.125076,-0.182083 12.196945,-1.231506 18.031174,-3.118698c5.357086,-1.73288 10.458771,-4.154541 15.177338,-7.200516c4.717957,3.045975 9.819641,5.467636 15.176727,7.200516c5.834229,1.887192 11.906097,2.936615 18.031158,3.118698c-1.96698,5.785721 -4.80188,11.243942 -8.409546,16.187759c-3.753723,5.143631 -8.297272,9.667709 -13.463989,13.404831c-3.538452,2.559402 -7.339447,4.728607 -11.334351,6.472733c-3.995514,-1.744125 -7.796478,-3.91333 -11.334976,-6.472733c-5.166702,-3.737122 -9.709686,-8.2612 -13.463364,-13.404831c-3.608246,-4.943817 -6.443176,-10.402039 -8.410172,-16.187759zm-3.212723,-19.425873c0,-5.33699 0.708282,-10.645599 2.102997,-15.789833c4.487976,2.802399 9.310013,5.047295 14.35849,6.680824c0.588852,0.190399 1.179474,0.371902 1.773071,0.545135l1.068939,1.509979c3.119888,4.276321 6.754745,8.14827 10.818222,11.531845c-4.482666,2.910004 -9.334854,5.2211 -14.432968,6.870621c-4.550079,1.471542 -9.253265,2.40274 -14.011444,2.776978c-1.113281,-4.621017 -1.677307,-9.36264 -1.677307,-14.125549zm76.702545,14.309418c1.718689,-5.856079 2.592529,-11.929733 2.592529,-18.037079c0,-5.608353 -0.736633,-11.187157 -2.187531,-16.596283c4.366791,-3.526657 8.25705,-7.609062 11.567902,-12.146111c3.605286,-4.94088 6.483948,-10.365952 8.550903,-16.109703c4.918976,3.65081 9.256805,8.021736 12.864441,12.966156c3.753693,5.143661 6.670776,10.843651 8.644287,16.890106c1.351563,4.142128 2.249023,8.411362 2.680634,12.733215c-2.900543,3.244049 -6.146973,6.172974 -9.686035,8.732391c-5.166107,3.737137 -10.890961,6.641815 -16.9646,8.606461c-5.837738,1.888367 -11.927948,2.885757 -18.062531,2.960846l0,0zm-33.982422,-9.831467c4.063477,-3.383575 7.698364,-7.255524 10.818237,-11.531845l1.068939,-1.509979c0.593597,-0.173233 1.184235,-0.354736 1.773102,-0.545135c5.048462,-1.63353 9.870483,-3.878426 14.358459,-6.680824c1.394714,5.144234 2.102997,10.452843 2.102997,15.789833c0,4.762909 -0.564026,9.504532 -1.676727,14.125549c-4.758179,-0.374237 -9.461365,-1.305435 -14.011414,-2.776978c-5.098145,-1.649521 -9.950928,-3.960617 -14.433594,-6.870621zm17.812439,-23.7229c0.817078,-1.873596 1.544861,-3.787392 2.18042,-5.735466c0.635559,-1.948097 1.176575,-3.922188 1.622345,-5.916397c1.469757,2.469543 2.762177,5.039612 3.866608,7.691841c-2.459503,1.499924 -5.022461,2.82309 -7.669373,3.960022l0,0zm-45.131744,-21.0411c2.899963,-3.244049 6.146973,-6.172386 9.68544,-8.732399c3.538498,-2.559402 7.339462,-4.728607 11.334976,-6.472733c3.994904,1.744125 7.795898,3.91333 11.334351,6.472733c3.539093,2.560013 6.784912,5.48835 9.685455,8.732399c-0.431,4.322433 -1.328491,8.591675 -2.680023,12.733208c-1.351532,4.141533 -3.145905,8.120461 -5.348816,11.870018c-4.261536,0.927032 -8.617096,1.396469 -12.990967,1.396469c-4.374481,0 -8.730042,-0.469437 -12.991592,-1.396469c-2.202896,-3.748962 -3.997269,-7.728485 -5.348801,-11.870018c-1.351532,-4.141533 -2.249023,-8.410774 -2.680023,-12.733208l0,0zm3.70343,-27.598961c1.908478,-4.977531 4.469666,-9.687229 7.62088,-14.004948c2.81189,-3.853607 6.067139,-7.358971 9.696106,-10.446358c3.628357,3.087387 6.883606,6.592751 9.695496,10.446358c3.151215,4.317719 5.712402,9.027416 7.62088,14.004948c-5.284943,0.358864 -10.511383,1.364532 -15.560455,2.998085l-1.75592,0.595955l-1.756531,-0.595955c-5.049072,-1.633553 -10.274902,-2.639221 -15.560455,-2.998085zm-3.737732,15.968971c0.268433,-2.857979 0.740234,-5.693504 1.41304,-8.485855c2.874527,0.22644 5.729568,0.655678 8.542618,1.284737c-1.767792,1.0382 -3.486465,2.160332 -5.150757,3.364075c-1.664307,1.203735 -3.26712,2.484917 -4.804901,3.837044zm-35.162506,0.244766c4.070587,-2.481964 8.424957,-4.481476 12.975037,-5.953049c5.098114,-1.649521 10.388397,-2.619118 15.733078,-2.88871c-1.290054,5.11586 -1.944534,10.375389 -1.944534,15.660942c0,0.616074 0.008881,1.231529 0.026611,1.847l-1.112106,1.478638c-3.119888,4.276329 -5.695862,8.91449 -7.672318,13.807472c-4.165192,-3.345146 -7.872162,-7.225945 -11.022797,-11.543663c-2.812454,-3.853012 -5.154877,-8.018776 -6.982971,-12.40863z"/>
     </g>
    </g>
   </g>
  </g>
 </g>
</svg>