<?xml version="1.0" encoding="UTF-8"?>
<svg width="160" height="148" xmlns="http://www.w3.org/2000/svg">
 <!-- Created with SVG-edit - http://svg-edit.googlecode.com/ -->
 <g>
  <path id="svg_85" d="m80.112671,26.624786c-0.159149,0 -0.3125,0.024857 -0.471436,0.025925l-79.104858,0l0,82.434204l0.235718,0c-0.086914,1.67366 -0.16861,3.331284 -0.235718,5.02739c-0.763153,19.292999 34.887024,33.303101 78.81311,33.303101c43.926147,0 81.865784,-13.246948 80.339478,-33.303101c-0.128815,-1.692505 -0.148804,-3.353729 -0.235718,-5.02739l0.235718,0l0,-82.434204l-79.104858,0c-0.158966,-0.001068 -0.312286,-0.025925 -0.471436,-0.025925z" stroke-width="1.046846" stroke="#000000" fill="#007fff"/>
  <path id="svg_83" d="m159.862976,27.370544a79.750305,27.371761 0 1 1-159.50061,0a79.750305,27.371761 0 1 1159.50061,0z" stroke="#000000" fill="#aad4ff"/>
  <title>Layer 1</title>
  <metadata id="svg_87">image/svg+xml</metadata>
  <title>Layer 1</title>
 </g>
</svg>