<?xml version="1.0" encoding="UTF-8"?>
<svg width="82" height="75" xmlns="http://www.w3.org/2000/svg">
 <!-- Created with SVG-edit - http://svg-edit.googlecode.com/ -->
 <g>
  <title>Layer 1</title>
  <path d="m80.442993,73.157936c1.24501,-21.540001 -15.681,-37.760002 -37.220993,-39.005997c-21.540001,-1.245003 -40.032997,15.226997 -41.278,36.766998c-0.096001,1.661003 -0.092003,0.797997 0.013,2.459l39.009003,-0.203003l39.47699,-0.016998l0,0l0,0z" id="svg_13" stroke-linecap="round" stroke-linejoin="round" stroke-width="3.75" stroke="#008c00" fill-rule="evenodd" fill="#aaff56"/>
  <g id="svg_5">
   <path d="m61.419159,24.315369a21.020901,24.08882 0 1 0-42.04184,0a21.020901,24.08882 0 1 042.04184,0z" id="svg_9" stroke-linecap="round" stroke-linejoin="round" stroke-width="3.75" stroke="#854b12" fill-rule="evenodd" fill="#ffd4aa"/>
   <path d="m20.853996,16.134239c0,-1.022602 -1.703995,4.090698 5.795006,4.544701c7.5,0.454994 14.886002,-11.475903 20.793991,-9.657902c5.909012,1.818001 8.636002,9.317898 12.044006,4.545101c1.705002,-3.8633 -10.112,-13.2943 -10.112,-13.2943c0,0 -5.453995,-2.272602 -8.863007,-2.272602c-3.408997,0 -9.771988,2.499802 -11.362991,3.636101c-1.591003,1.136299 -5.227005,5.681301 -5.227005,5.681301l-3.068001,6.8176l0,0l0,0l0,0l0,0l0,0z" id="svg_8" stroke-width="1pt" fill-rule="evenodd" fill="#854b12"/>
   <path opacity="0.35" d="m21.818001,15.807838c-0.287003,1.687099 1.743996,2.8311 3.084999,3.298096c2.386002,0.682007 4.574997,1.425003 14.544006,-6.817795c8.824997,-8.600201 3.168991,-11.9776 -3.56601,-10.979702c-5.453995,0.909 -12.491989,7.25 -14.062996,14.499302l0,0.000099l0,0l0,0l0,0l0,0z" id="svg_6" stroke-width="1pt" fill-rule="evenodd" fill="#ffffff"/>
  </g>
 </g>
</svg>