<?xml version="1.0" encoding="UTF-8"?>
<svg width="146" height="106" xmlns="http://www.w3.org/2000/svg" xmlns:xlink="http://www.w3.org/1999/xlink">
 <!-- Created with SVG-edit - http://svg-edit.googlecode.com/ -->
 <g>
  <title>Layer 1</title>
  <g id="svg_58">
   <!-- Created with SVG-edit - http://svg-edit.googlecode.com/ -->
   <g>
    <metadata id="svg_57">image/svg+xml</metadata>
    <title>Layer 1</title>
    <!-- Created with SVG-edit - http://svg-edit.googlecode.com/ -->
    <metadata id="svg_56">image/svg+xml</metadata>
    <defs transform="translate(-1.25391, 0.00390625) translate(-0) scale(0.25) translate(0) translate(5, -0) scale(3.66274) translate(-5, 0)">
     <linearGradient id="svg_47">
      <stop stop-color="#7918e8" id="svg_55" offset="0"/>
      <stop stop-color="#4c0f92" id="svg_54" offset="1"/>
     </linearGradient>
     <linearGradient id="svg_48">
      <stop stop-color="#ffffff" id="svg_53" offset="0"/>
      <stop stop-color="#efefef" id="svg_52" offset="1"/>
     </linearGradient>
     <linearGradient id="svg_49">
      <stop stop-color="#ffffff" stop-opacity="0.875" id="svg_51" offset="0"/>
      <stop stop-color="#ffffff" stop-opacity="0.34375" id="svg_50" offset="1"/>
     </linearGradient>
     <linearGradient gradientTransform="matrix(1.2094029188156128,0,0,1.2094029188156128,29.12942123413086,-26.720510482788086)" gradientUnits="userSpaceOnUse" y2="61.991566" x2="33.862434" y1="29.460318" x1="33.862434" id="svg_44" xlink:href="#svg_49"/>
     <linearGradient gradientTransform="matrix(1.2094029188156128,0,0,1.2094029188156128,-106.05167388916016,-27.791580200195312)" y2="62.982925" x2="199.26038" y1="62.982925" x1="167.27213" gradientUnits="userSpaceOnUse" id="svg_41" xlink:href="#svg_48"/>
     <linearGradient y2="62.982925" x2="199.26038" y1="62.982925" x1="167.27213" gradientUnits="userSpaceOnUse" id="svg_42" xlink:href="#svg_47"/>
     <linearGradient gradientTransform="matrix(1.2094029188156128,0,0,1.2094029188156128,-148.17991638183594,-25.143959045410156)" y2="62.982925" x2="199.26038" y1="62.982925" x1="167.27213" gradientUnits="userSpaceOnUse" id="svg_38" xlink:href="#svg_48"/>
     <linearGradient y2="62.982925" x2="199.26038" y1="62.982925" x1="167.27213" gradientUnits="userSpaceOnUse" id="svg_39" xlink:href="#svg_47"/>
    </defs>
    <title>Layer 1</title>
    <!-- Created with SVG-edit - http://svg-edit.googlecode.com/ -->
    <title>Layer 1</title>
    <g id="svg_35">
     <path fill="#d1004e" fill-rule="nonzero" stroke-opacity="0.211538" id="svg_46" d="m72.905548,0.001168c-40.239098,0 -72.904308,22.497584 -72.904308,50.190192c0,16.534096 11.646301,31.184868 29.592573,40.326073c-4.65509,4.305099 -10.830545,9.709816 -17.800898,15.004128c15.541306,1.51783 29.98542,0.319458 42.820404,-6.765083c5.843552,1.039978 11.978554,1.587334 18.292229,1.587334c40.239113,0 72.904343,-22.459778 72.904343,-50.152405c0,-27.692654 -32.66523,-50.190238 -72.904343,-50.190238z"/>
     <path fill="#ff56ff" fill-rule="nonzero" stroke-opacity="0.211538" id="svg_45" d="m71.832047,3.723265c-36.248966,0 -67.083014,21.92757 -67.083014,47.185671c0,15.080437 15.742564,29.653641 31.909293,37.991173c-4.193485,3.926659 -7.515087,7.232605 -13.794241,12.061485c21.90053,0.024956 22.716082,-6.193123 30.858725,-7.980461c5.264099,0.948547 13.773567,0.950264 19.4608,1.017075c33.83548,0.402222 67.340469,-18.836868 67.340469,-44.09494c0,-25.258038 -32.443016,-46.180002 -68.692032,-46.180002z"/>
     <path fill="url(#svg_44)" fill-rule="nonzero" stroke-opacity="0.211538" id="svg_43" d="m18.852886,27.013319c3.523584,2.865017 6.913542,4.639523 10.994606,6.660723c2.575863,1.232342 5.399441,2.346695 8.42804,3.325878c3.028576,0.979126 6.232609,1.842812 9.63744,2.532158c3.404827,0.689373 6.991085,1.22438 10.695644,1.58733c3.70459,0.363014 7.561497,0.56691 11.489338,0.56691c2.33548,0 4.598778,-0.163364 6.840675,-0.45351c2.241905,-0.290115 4.430687,-0.738243 6.576134,-1.247219c4.290901,-1.017876 8.39492,-2.389675 12.283012,-3.854942c3.888054,-1.46529 7.573265,-3.004192 11.035797,-4.346304c3.462517,-1.342136 6.698792,-2.48851 9.712997,-3.136908c3.13134,-0.600058 5.540016,-0.810371 7.949135,-2.89711c-13.116386,-10.840826 -32.00692,-19.62801 -53.188362,-19.62801c-21.453175,0 -39.810707,9.522543 -52.454456,20.891005z"/>
     <g id="svg_36">
      <path fill="url(#svg_41)" fill-rule="nonzero" stroke="url(#svg_42)" id="svg_40" d="m82.343452,80.637215a10.135428,10.135428 0 1 1-20.270851,0a10.135428,10.135428 0 1 120.270851,0z"/>
      <path fill="url(#svg_38)" fill-rule="evenodd" stroke="url(#svg_39)" stroke-width="1px" d="m54.818302,17.590679c-0.796906,1.209976 3.68084,10.669998 5.357307,11.148973c2.027081,0.579182 4.343723,-4.343737 8.977062,-4.343737c4.633354,0 7.96357,0.434383 7.529213,7.384359c-0.434418,6.950006 -13.206551,12.443602 -13.320854,22.732359c-0.144829,13.031235 -2.027279,12.896439 7.67395,13.031235c9.266937,0.126877 6.660416,0.144836 7.239601,-12.596897c0.485504,-10.55962 14.623962,-9.701042 13.900024,-25.628138c-0.723969,-15.927094 -12.741714,-18.678134 -20.850037,-18.388567c-11.86565,0.416307 -15.614719,5.306719 -16.506268,6.660412z" id="svg_37"/>
     </g>
    </g>
   </g>
  </g>
 </g>
</svg>