<?xml version="1.0" encoding="UTF-8"?>
<svg width="76" height="76" xmlns="http://www.w3.org/2000/svg">
 <!-- Created with SVG-edit - http://svg-edit.googlecode.com/ -->
 <g>
  <ellipse fill="#ffff56" stroke="#bf0000" cx="38" cy="38" id="svg_18" rx="38" ry="38"/>
  <path fill="none" stroke="#bf0000" id="svg_22" d="m20,55c1,0 1.292908,0.777344 2,1.202499c0.707092,0.42514 1.292908,0.176086 2,0.601242c0.707092,0.42514 0.292908,0.777344 1,1.202484c0.707092,0.425156 1.61731,0.045776 2,0.601257c0.541199,0.785568 1.292908,0.777344 2,1.202484c0.707092,0.425156 1.292908,0.176102 2,0.601242c0.707092,0.425156 1,0.601257 2,0.601257c1,0 2,0 3,0c2,0 3,0 4,0c1,0 2,0 3,0c1,0 2.458801,0.184311 3,-0.601257c0.38269,-0.555466 1.292908,-0.176086 2,-0.601242c0.707092,-0.42514 0.292908,-0.777344 1,-1.202484c0.707092,-0.425156 1.292908,-0.176102 2,-0.601257c0.707092,-0.42514 0.292908,-0.777344 1,-1.202484c0.707092,-0.425156 1,-0.601242 1,-1.202499l1,0l1,0l1,0"/>
  <g id="svg_39">
   <ellipse fill="#aaffff" stroke="#000000" cx="25.04448" cy="29.01067" id="svg_19" rx="9.04444" ry="11.98932"/>
   <ellipse fill="#aaffff" stroke="#000000" cx="50.95559" cy="29.01067" rx="9.04444" ry="11.98932" id="svg_32"/>
   <ellipse fill="#000000" stroke="#000000" cx="25.77778" cy="30.30682" id="svg_33" rx="5.86667" ry="6.80475"/>
   <ellipse fill="#000000" stroke="#000000" cx="49.73334" cy="30.30682" rx="5.86667" ry="6.80475" id="svg_34"/>
   <ellipse fill="#ffffff" stroke="#000000" stroke-width="0" cx="24.8" cy="27.3905" id="svg_35" rx="2.44444" ry="2.91632"/>
   <ellipse fill="#ffffff" stroke="#000000" stroke-width="0" cx="47.28889" cy="28.3626" rx="2.44444" ry="2.91632" id="svg_38"/>
  </g>
  <title>Layer 1</title>
 </g>
</svg>